<?xml version="1.0" encoding="utf-8" standalone="no"?>
<!DOCTYPE svg PUBLIC "-//W3C//DTD SVG 1.1//EN"
  "http://www.w3.org/Graphics/SVG/1.1/DTD/svg11.dtd">
<!-- Created with matplotlib (https://matplotlib.org/) -->
<svg height="504pt" version="1.1" viewBox="0 0 720 504" width="720pt" xmlns="http://www.w3.org/2000/svg" xmlns:xlink="http://www.w3.org/1999/xlink">
 <defs>
  <style type="text/css">
*{stroke-linecap:butt;stroke-linejoin:round;}
  </style>
 </defs>
 <g id="figure_1">
  <g id="patch_1">
   <path d="M 0 504 
L 720 504 
L 720 0 
L 0 0 
z
" style="fill:#ffffff;"/>
  </g>
  <g id="axes_1">
   <g id="patch_2">
    <path d="M 90 441 
L 648 441 
L 648 60.48 
L 90 60.48 
z
" style="fill:#ffffff;"/>
   </g>
   <g id="PathCollection_1">
    <defs>
     <path d="M 0 3 
C 0.795609 3 1.55874 2.683901 2.12132 2.12132 
C 2.683901 1.55874 3 0.795609 3 0 
C 3 -0.795609 2.683901 -1.55874 2.12132 -2.12132 
C 1.55874 -2.683901 0.795609 -3 0 -3 
C -0.795609 -3 -1.55874 -2.683901 -2.12132 -2.12132 
C -2.683901 -1.55874 -3 -0.795609 -3 0 
C -3 0.795609 -2.683901 1.55874 -2.12132 2.12132 
C -1.55874 2.683901 -0.795609 3 0 3 
z
" id="m975d614552" style="stroke:#1f77b4;"/>
    </defs>
    <g clip-path="url(#p854828a037)">
     <use style="fill:#1f77b4;stroke:#1f77b4;" x="186.598128" xlink:href="#m975d614552" y="419.27535"/>
     <use style="fill:#1f77b4;stroke:#1f77b4;" x="430.20008" xlink:href="#m975d614552" y="259.857059"/>
     <use style="fill:#1f77b4;stroke:#1f77b4;" x="425.543422" xlink:href="#m975d614552" y="390.42637"/>
     <use style="fill:#1f77b4;stroke:#1f77b4;" x="348.927913" xlink:href="#m975d614552" y="421.945346"/>
     <use style="fill:#1f77b4;stroke:#1f77b4;" x="440.447411" xlink:href="#m975d614552" y="414.065602"/>
     <use style="fill:#1f77b4;stroke:#1f77b4;" x="120.300052" xlink:href="#m975d614552" y="397.850262"/>
     <use style="fill:#1f77b4;stroke:#1f77b4;" x="379.807805" xlink:href="#m975d614552" y="374.601761"/>
     <use style="fill:#1f77b4;stroke:#1f77b4;" x="115.363636" xlink:href="#m975d614552" y="400.129526"/>
     <use style="fill:#1f77b4;stroke:#1f77b4;" x="394.581516" xlink:href="#m975d614552" y="197.730813"/>
     <use style="fill:#1f77b4;stroke:#1f77b4;" x="389.920547" xlink:href="#m975d614552" y="396.02685"/>
     <use style="fill:#1f77b4;stroke:#1f77b4;" x="220.854411" xlink:href="#m975d614552" y="368.089576"/>
     <use style="fill:#1f77b4;stroke:#1f77b4;" x="448.8422" xlink:href="#m975d614552" y="337.612549"/>
     <use style="fill:#1f77b4;stroke:#1f77b4;" x="436.40929" xlink:href="#m975d614552" y="308.43796"/>
     <use style="fill:#1f77b4;stroke:#1f77b4;" x="456.146644" xlink:href="#m975d614552" y="249.046832"/>
     <use style="fill:#1f77b4;stroke:#1f77b4;" x="369.468135" xlink:href="#m975d614552" y="377.336878"/>
     <use style="fill:#1f77b4;stroke:#1f77b4;" x="442.395215" xlink:href="#m975d614552" y="183.599372"/>
     <use style="fill:#1f77b4;stroke:#1f77b4;" x="499.504522" xlink:href="#m975d614552" y="190.827897"/>
     <use style="fill:#1f77b4;stroke:#1f77b4;" x="530.483761" xlink:href="#m975d614552" y="103.69486"/>
     <use style="fill:#1f77b4;stroke:#1f77b4;" x="402.154759" xlink:href="#m975d614552" y="153.578198"/>
     <use style="fill:#1f77b4;stroke:#1f77b4;" x="370.995296" xlink:href="#m975d614552" y="210.559818"/>
     <use style="fill:#1f77b4;stroke:#1f77b4;" x="433.11586" xlink:href="#m975d614552" y="149.149912"/>
     <use style="fill:#1f77b4;stroke:#1f77b4;" x="400.170796" xlink:href="#m975d614552" y="227.491499"/>
     <use style="fill:#1f77b4;stroke:#1f77b4;" x="245.692389" xlink:href="#m975d614552" y="251.977315"/>
     <use style="fill:#1f77b4;stroke:#1f77b4;" x="201.927557" xlink:href="#m975d614552" y="298.995292"/>
     <use style="fill:#1f77b4;stroke:#1f77b4;" x="181.979666" xlink:href="#m975d614552" y="295.022859"/>
     <use style="fill:#1f77b4;stroke:#1f77b4;" x="409.89592" xlink:href="#m975d614552" y="227.686865"/>
     <use style="fill:#1f77b4;stroke:#1f77b4;" x="286.959614" xlink:href="#m975d614552" y="268.257778"/>
     <use style="fill:#1f77b4;stroke:#1f77b4;" x="243.201746" xlink:href="#m975d614552" y="207.238604"/>
     <use style="fill:#1f77b4;stroke:#1f77b4;" x="298.964052" xlink:href="#m975d614552" y="251.260975"/>
     <use style="fill:#1f77b4;stroke:#1f77b4;" x="267.065135" xlink:href="#m975d614552" y="223.128335"/>
     <use style="fill:#1f77b4;stroke:#1f77b4;" x="570.385406" xlink:href="#m975d614552" y="118.217033"/>
     <use style="fill:#1f77b4;stroke:#1f77b4;" x="385.610445" xlink:href="#m975d614552" y="163.867451"/>
     <use style="fill:#1f77b4;stroke:#1f77b4;" x="454.080829" xlink:href="#m975d614552" y="225.863453"/>
     <use style="fill:#1f77b4;stroke:#1f77b4;" x="330.280811" xlink:href="#m975d614552" y="242.143916"/>
     <use style="fill:#1f77b4;stroke:#1f77b4;" x="377.623792" xlink:href="#m975d614552" y="373.624933"/>
     <use style="fill:#1f77b4;stroke:#1f77b4;" x="466.31592" xlink:href="#m975d614552" y="268.453143"/>
     <use style="fill:#1f77b4;stroke:#1f77b4;" x="449.41763" xlink:href="#m975d614552" y="217.853465"/>
     <use style="fill:#1f77b4;stroke:#1f77b4;" x="353.689285" xlink:href="#m975d614552" y="224.105163"/>
     <use style="fill:#1f77b4;stroke:#1f77b4;" x="577.890426" xlink:href="#m975d614552" y="110.662898"/>
     <use style="fill:#1f77b4;stroke:#1f77b4;" x="446.954517" xlink:href="#m975d614552" y="212.252986"/>
     <use style="fill:#1f77b4;stroke:#1f77b4;" x="557.45125" xlink:href="#m975d614552" y="108.448755"/>
     <use style="fill:#1f77b4;stroke:#1f77b4;" x="444.98265" xlink:href="#m975d614552" y="193.107162"/>
     <use style="fill:#1f77b4;stroke:#1f77b4;" x="465.782874" xlink:href="#m975d614552" y="162.695257"/>
     <use style="fill:#1f77b4;stroke:#1f77b4;" x="420.825819" xlink:href="#m975d614552" y="153.057223"/>
     <use style="fill:#1f77b4;stroke:#1f77b4;" x="578.345441" xlink:href="#m975d614552" y="92.559024"/>
     <use style="fill:#1f77b4;stroke:#1f77b4;" x="531.115906" xlink:href="#m975d614552" y="136.190664"/>
     <use style="fill:#1f77b4;stroke:#1f77b4;" x="587.122572" xlink:href="#m975d614552" y="92.624146"/>
     <use style="fill:#1f77b4;stroke:#1f77b4;" x="553.777466" xlink:href="#m975d614552" y="102.848276"/>
     <use style="fill:#1f77b4;stroke:#1f77b4;" x="269.086978" xlink:href="#m975d614552" y="223.388823"/>
     <use style="fill:#1f77b4;stroke:#1f77b4;" x="573.873736" xlink:href="#m975d614552" y="97.70365"/>
     <use style="fill:#1f77b4;stroke:#1f77b4;" x="465.905765" xlink:href="#m975d614552" y="141.921387"/>
     <use style="fill:#1f77b4;stroke:#1f77b4;" x="512.479432" xlink:href="#m975d614552" y="155.010879"/>
     <use style="fill:#1f77b4;stroke:#1f77b4;" x="530.097769" xlink:href="#m975d614552" y="96.857066"/>
     <use style="fill:#1f77b4;stroke:#1f77b4;" x="522.869607" xlink:href="#m975d614552" y="107.602171"/>
     <use style="fill:#1f77b4;stroke:#1f77b4;" x="606.0999" xlink:href="#m975d614552" y="144.982114"/>
     <use style="fill:#1f77b4;stroke:#1f77b4;" x="507.26266" xlink:href="#m975d614552" y="120.366054"/>
     <use style="fill:#1f77b4;stroke:#1f77b4;" x="331.175449" xlink:href="#m975d614552" y="237.324899"/>
     <use style="fill:#1f77b4;stroke:#1f77b4;" x="441.509614" xlink:href="#m975d614552" y="157.485509"/>
     <use style="fill:#1f77b4;stroke:#1f77b4;" x="479.658282" xlink:href="#m975d614552" y="147.847475"/>
     <use style="fill:#1f77b4;stroke:#1f77b4;" x="506.929434" xlink:href="#m975d614552" y="125.51068"/>
     <use style="fill:#1f77b4;stroke:#1f77b4;" x="461.645526" xlink:href="#m975d614552" y="145.372845"/>
     <use style="fill:#1f77b4;stroke:#1f77b4;" x="540.981523" xlink:href="#m975d614552" y="95.619751"/>
     <use style="fill:#1f77b4;stroke:#1f77b4;" x="527.409603" xlink:href="#m975d614552" y="93.275364"/>
     <use style="fill:#1f77b4;stroke:#1f77b4;" x="472.009498" xlink:href="#m975d614552" y="144.526261"/>
     <use style="fill:#1f77b4;stroke:#1f77b4;" x="508.494762" xlink:href="#m975d614552" y="121.538248"/>
     <use style="fill:#1f77b4;stroke:#1f77b4;" x="401.969564" xlink:href="#m975d614552" y="190.502288"/>
     <use style="fill:#1f77b4;stroke:#1f77b4;" x="451.075727" xlink:href="#m975d614552" y="212.05762"/>
     <use style="fill:#1f77b4;stroke:#1f77b4;" x="566.138719" xlink:href="#m975d614552" y="126.55263"/>
     <use style="fill:#1f77b4;stroke:#1f77b4;" x="504.633362" xlink:href="#m975d614552" y="112.356067"/>
     <use style="fill:#1f77b4;stroke:#1f77b4;" x="587.525668" xlink:href="#m975d614552" y="95.359263"/>
     <use style="fill:#1f77b4;stroke:#1f77b4;" x="589.339421" xlink:href="#m975d614552" y="98.094381"/>
     <use style="fill:#1f77b4;stroke:#1f77b4;" x="299.246697" xlink:href="#m975d614552" y="326.932566"/>
     <use style="fill:#1f77b4;stroke:#1f77b4;" x="466.639475" xlink:href="#m975d614552" y="234.91539"/>
     <use style="fill:#1f77b4;stroke:#1f77b4;" x="460.444893" xlink:href="#m975d614552" y="233.352466"/>
     <use style="fill:#1f77b4;stroke:#1f77b4;" x="453.911748" xlink:href="#m975d614552" y="310.586981"/>
     <use style="fill:#1f77b4;stroke:#1f77b4;" x="270.146989" xlink:href="#m975d614552" y="267.150706"/>
     <use style="fill:#1f77b4;stroke:#1f77b4;" x="285.232352" xlink:href="#m975d614552" y="249.502685"/>
     <use style="fill:#1f77b4;stroke:#1f77b4;" x="413.217168" xlink:href="#m975d614552" y="229.445155"/>
     <use style="fill:#1f77b4;stroke:#1f77b4;" x="551.48846" xlink:href="#m975d614552" y="103.043642"/>
     <use style="fill:#1f77b4;stroke:#1f77b4;" x="299.041761" xlink:href="#m975d614552" y="357.279348"/>
     <use style="fill:#1f77b4;stroke:#1f77b4;" x="543.981231" xlink:href="#m975d614552" y="269.03924"/>
     <use style="fill:#1f77b4;stroke:#1f77b4;" x="587.8514" xlink:href="#m975d614552" y="109.751192"/>
     <use style="fill:#1f77b4;stroke:#1f77b4;" x="511.580243" xlink:href="#m975d614552" y="212.05762"/>
     <use style="fill:#1f77b4;stroke:#1f77b4;" x="357.615692" xlink:href="#m975d614552" y="257.577794"/>
     <use style="fill:#1f77b4;stroke:#1f77b4;" x="496.440305" xlink:href="#m975d614552" y="103.499495"/>
     <use style="fill:#1f77b4;stroke:#1f77b4;" x="312.393737" xlink:href="#m975d614552" y="265.913391"/>
     <use style="fill:#1f77b4;stroke:#1f77b4;" x="540.688328" xlink:href="#m975d614552" y="138.730416"/>
     <use style="fill:#1f77b4;stroke:#1f77b4;" x="186.598128" xlink:href="#m975d614552" y="416.865842"/>
     <use style="fill:#1f77b4;stroke:#1f77b4;" x="430.20008" xlink:href="#m975d614552" y="255.29853"/>
     <use style="fill:#1f77b4;stroke:#1f77b4;" x="353.560498" xlink:href="#m975d614552" y="384.760769"/>
     <use style="fill:#1f77b4;stroke:#1f77b4;" x="348.927913" xlink:href="#m975d614552" y="418.55901"/>
     <use style="fill:#1f77b4;stroke:#1f77b4;" x="427.726591" xlink:href="#m975d614552" y="407.423174"/>
     <use style="fill:#1f77b4;stroke:#1f77b4;" x="123.013882" xlink:href="#m975d614552" y="393.747585"/>
     <use style="fill:#1f77b4;stroke:#1f77b4;" x="379.807805" xlink:href="#m975d614552" y="370.108353"/>
     <use style="fill:#1f77b4;stroke:#1f77b4;" x="115.363636" xlink:href="#m975d614552" y="401.757573"/>
     <use style="fill:#1f77b4;stroke:#1f77b4;" x="394.581516" xlink:href="#m975d614552" y="193.953746"/>
     <use style="fill:#1f77b4;stroke:#1f77b4;" x="389.920547" xlink:href="#m975d614552" y="391.142711"/>
     <use style="fill:#1f77b4;stroke:#1f77b4;" x="220.854411" xlink:href="#m975d614552" y="362.814706"/>
     <use style="fill:#1f77b4;stroke:#1f77b4;" x="448.8422" xlink:href="#m975d614552" y="331.360852"/>
     <use style="fill:#1f77b4;stroke:#1f77b4;" x="436.40929" xlink:href="#m975d614552" y="302.251384"/>
     <use style="fill:#1f77b4;stroke:#1f77b4;" x="461.507449" xlink:href="#m975d614552" y="244.292937"/>
     <use style="fill:#1f77b4;stroke:#1f77b4;" x="369.468135" xlink:href="#m975d614552" y="372.45274"/>
     <use style="fill:#1f77b4;stroke:#1f77b4;" x="438.889107" xlink:href="#m975d614552" y="182.883031"/>
     <use style="fill:#1f77b4;stroke:#1f77b4;" x="504.818922" xlink:href="#m975d614552" y="191.739603"/>
     <use style="fill:#1f77b4;stroke:#1f77b4;" x="530.918477" xlink:href="#m975d614552" y="102.392423"/>
     <use style="fill:#1f77b4;stroke:#1f77b4;" x="399.053006" xlink:href="#m975d614552" y="148.173085"/>
     <use style="fill:#1f77b4;stroke:#1f77b4;" x="381.324454" xlink:href="#m975d614552" y="209.452746"/>
     <use style="fill:#1f77b4;stroke:#1f77b4;" x="435.638872" xlink:href="#m975d614552" y="150.322106"/>
     <use style="fill:#1f77b4;stroke:#1f77b4;" x="413.417031" xlink:href="#m975d614552" y="222.93297"/>
     <use style="fill:#1f77b4;stroke:#1f77b4;" x="278.960493" xlink:href="#m975d614552" y="249.111954"/>
     <use style="fill:#1f77b4;stroke:#1f77b4;" x="177.437234" xlink:href="#m975d614552" y="294.632128"/>
     <use style="fill:#1f77b4;stroke:#1f77b4;" x="181.979666" xlink:href="#m975d614552" y="290.13872"/>
     <use style="fill:#1f77b4;stroke:#1f77b4;" x="412.00224" xlink:href="#m975d614552" y="225.212234"/>
     <use style="fill:#1f77b4;stroke:#1f77b4;" x="274.777346" xlink:href="#m975d614552" y="266.434366"/>
     <use style="fill:#1f77b4;stroke:#1f77b4;" x="314.005486" xlink:href="#m975d614552" y="207.433969"/>
     <use style="fill:#1f77b4;stroke:#1f77b4;" x="264.341195" xlink:href="#m975d614552" y="247.093176"/>
     <use style="fill:#1f77b4;stroke:#1f77b4;" x="291.152932" xlink:href="#m975d614552" y="220.588583"/>
     <use style="fill:#1f77b4;stroke:#1f77b4;" x="570.689252" xlink:href="#m975d614552" y="118.412399"/>
     <use style="fill:#1f77b4;stroke:#1f77b4;" x="389.477905" xlink:href="#m975d614552" y="151.233812"/>
     <use style="fill:#1f77b4;stroke:#1f77b4;" x="454.080829" xlink:href="#m975d614552" y="225.537844"/>
     <use style="fill:#1f77b4;stroke:#1f77b4;" x="349.850004" xlink:href="#m975d614552" y="237.71563"/>
     <use style="fill:#1f77b4;stroke:#1f77b4;" x="370.408882" xlink:href="#m975d614552" y="372.062008"/>
     <use style="fill:#1f77b4;stroke:#1f77b4;" x="466.31592" xlink:href="#m975d614552" y="265.783148"/>
     <use style="fill:#1f77b4;stroke:#1f77b4;" x="447.26229" xlink:href="#m975d614552" y="215.248591"/>
     <use style="fill:#1f77b4;stroke:#1f77b4;" x="360.924585" xlink:href="#m975d614552" y="221.89102"/>
     <use style="fill:#1f77b4;stroke:#1f77b4;" x="581.602804" xlink:href="#m975d614552" y="109.165096"/>
     <use style="fill:#1f77b4;stroke:#1f77b4;" x="424.914293" xlink:href="#m975d614552" y="209.127137"/>
     <use style="fill:#1f77b4;stroke:#1f77b4;" x="559.409699" xlink:href="#m975d614552" y="106.299734"/>
     <use style="fill:#1f77b4;stroke:#1f77b4;" x="464.01219" xlink:href="#m975d614552" y="190.2418"/>
     <use style="fill:#1f77b4;stroke:#1f77b4;" x="462.775514" xlink:href="#m975d614552" y="156.573803"/>
     <use style="fill:#1f77b4;stroke:#1f77b4;" x="425.404806" xlink:href="#m975d614552" y="152.210639"/>
     <use style="fill:#1f77b4;stroke:#1f77b4;" x="576.684964" xlink:href="#m975d614552" y="91.451952"/>
     <use style="fill:#1f77b4;stroke:#1f77b4;" x="514.967895" xlink:href="#m975d614552" y="134.041643"/>
     <use style="fill:#1f77b4;stroke:#1f77b4;" x="583.958666" xlink:href="#m975d614552" y="90.605368"/>
     <use style="fill:#1f77b4;stroke:#1f77b4;" x="555.270674" xlink:href="#m975d614552" y="102.26218"/>
     <use style="fill:#1f77b4;stroke:#1f77b4;" x="337.784273" xlink:href="#m975d614552" y="219.155902"/>
     <use style="fill:#1f77b4;stroke:#1f77b4;" x="575.270809" xlink:href="#m975d614552" y="96.596579"/>
     <use style="fill:#1f77b4;stroke:#1f77b4;" x="468.222735" xlink:href="#m975d614552" y="138.86066"/>
     <use style="fill:#1f77b4;stroke:#1f77b4;" x="510.261087" xlink:href="#m975d614552" y="154.294539"/>
     <use style="fill:#1f77b4;stroke:#1f77b4;" x="541.796517" xlink:href="#m975d614552" y="96.596579"/>
     <use style="fill:#1f77b4;stroke:#1f77b4;" x="520.472468" xlink:href="#m975d614552" y="106.299734"/>
     <use style="fill:#1f77b4;stroke:#1f77b4;" x="607.688963" xlink:href="#m975d614552" y="144.005286"/>
     <use style="fill:#1f77b4;stroke:#1f77b4;" x="509.572291" xlink:href="#m975d614552" y="118.933373"/>
     <use style="fill:#1f77b4;stroke:#1f77b4;" x="329.07686" xlink:href="#m975d614552" y="233.678075"/>
     <use style="fill:#1f77b4;stroke:#1f77b4;" x="451.786256" xlink:href="#m975d614552" y="156.899413"/>
     <use style="fill:#1f77b4;stroke:#1f77b4;" x="486.623195" xlink:href="#m975d614552" y="147.000891"/>
     <use style="fill:#1f77b4;stroke:#1f77b4;" x="504.322067" xlink:href="#m975d614552" y="122.254588"/>
     <use style="fill:#1f77b4;stroke:#1f77b4;" x="454.589751" xlink:href="#m975d614552" y="146.089185"/>
     <use style="fill:#1f77b4;stroke:#1f77b4;" x="543.014021" xlink:href="#m975d614552" y="94.512679"/>
     <use style="fill:#1f77b4;stroke:#1f77b4;" x="530.596694" xlink:href="#m975d614552" y="89.368053"/>
     <use style="fill:#1f77b4;stroke:#1f77b4;" x="478.640987" xlink:href="#m975d614552" y="142.246996"/>
     <use style="fill:#1f77b4;stroke:#1f77b4;" x="506.065194" xlink:href="#m975d614552" y="120.756785"/>
     <use style="fill:#1f77b4;stroke:#1f77b4;" x="400.705067" xlink:href="#m975d614552" y="188.027657"/>
     <use style="fill:#1f77b4;stroke:#1f77b4;" x="455.932441" xlink:href="#m975d614552" y="209.517868"/>
     <use style="fill:#1f77b4;stroke:#1f77b4;" x="558.685949" xlink:href="#m975d614552" y="125.185071"/>
     <use style="fill:#1f77b4;stroke:#1f77b4;" x="502.333007" xlink:href="#m975d614552" y="110.207045"/>
     <use style="fill:#1f77b4;stroke:#1f77b4;" x="583.225699" xlink:href="#m975d614552" y="94.577801"/>
     <use style="fill:#1f77b4;stroke:#1f77b4;" x="589.339421" xlink:href="#m975d614552" y="96.531457"/>
     <use style="fill:#1f77b4;stroke:#1f77b4;" x="297.571114" xlink:href="#m975d614552" y="324.067204"/>
     <use style="fill:#1f77b4;stroke:#1f77b4;" x="471.032679" xlink:href="#m975d614552" y="234.459537"/>
     <use style="fill:#1f77b4;stroke:#1f77b4;" x="446.745617" xlink:href="#m975d614552" y="236.217827"/>
     <use style="fill:#1f77b4;stroke:#1f77b4;" x="453.317353" xlink:href="#m975d614552" y="308.763569"/>
     <use style="fill:#1f77b4;stroke:#1f77b4;" x="312.594503" xlink:href="#m975d614552" y="262.527055"/>
     <use style="fill:#1f77b4;stroke:#1f77b4;" x="284.438068" xlink:href="#m975d614552" y="246.18147"/>
     <use style="fill:#1f77b4;stroke:#1f77b4;" x="420.411572" xlink:href="#m975d614552" y="239.929773"/>
     <use style="fill:#1f77b4;stroke:#1f77b4;" x="546.173746" xlink:href="#m975d614552" y="100.829499"/>
     <use style="fill:#1f77b4;stroke:#1f77b4;" x="299.041761" xlink:href="#m975d614552" y="354.218621"/>
     <use style="fill:#1f77b4;stroke:#1f77b4;" x="545.348091" xlink:href="#m975d614552" y="263.829492"/>
     <use style="fill:#1f77b4;stroke:#1f77b4;" x="590.051504" xlink:href="#m975d614552" y="106.690465"/>
     <use style="fill:#1f77b4;stroke:#1f77b4;" x="504.233606" xlink:href="#m975d614552" y="211.406402"/>
     <use style="fill:#1f77b4;stroke:#1f77b4;" x="354.171509" xlink:href="#m975d614552" y="253.344874"/>
     <use style="fill:#1f77b4;stroke:#1f77b4;" x="499.391412" xlink:href="#m975d614552" y="103.239007"/>
     <use style="fill:#1f77b4;stroke:#1f77b4;" x="320.260216" xlink:href="#m975d614552" y="261.615349"/>
     <use style="fill:#1f77b4;stroke:#1f77b4;" x="547.664989" xlink:href="#m975d614552" y="136.776761"/>
     <use style="fill:#1f77b4;stroke:#1f77b4;" x="186.598128" xlink:href="#m975d614552" y="413.544628"/>
     <use style="fill:#1f77b4;stroke:#1f77b4;" x="430.20008" xlink:href="#m975d614552" y="249.763172"/>
     <use style="fill:#1f77b4;stroke:#1f77b4;" x="400.525828" xlink:href="#m975d614552" y="375.64371"/>
     <use style="fill:#1f77b4;stroke:#1f77b4;" x="348.927913" xlink:href="#m975d614552" y="423.703636"/>
     <use style="fill:#1f77b4;stroke:#1f77b4;" x="412.811126" xlink:href="#m975d614552" y="402.7344"/>
     <use style="fill:#1f77b4;stroke:#1f77b4;" x="121.718671" xlink:href="#m975d614552" y="393.22661"/>
     <use style="fill:#1f77b4;stroke:#1f77b4;" x="383.836084" xlink:href="#m975d614552" y="372.45274"/>
     <use style="fill:#1f77b4;stroke:#1f77b4;" x="115.363636" xlink:href="#m975d614552" y="401.692451"/>
     <use style="fill:#1f77b4;stroke:#1f77b4;" x="394.581516" xlink:href="#m975d614552" y="195.321305"/>
     <use style="fill:#1f77b4;stroke:#1f77b4;" x="389.920547" xlink:href="#m975d614552" y="385.021257"/>
     <use style="fill:#1f77b4;stroke:#1f77b4;" x="220.854411" xlink:href="#m975d614552" y="358.646907"/>
     <use style="fill:#1f77b4;stroke:#1f77b4;" x="448.8422" xlink:href="#m975d614552" y="327.648906"/>
     <use style="fill:#1f77b4;stroke:#1f77b4;" x="436.40929" xlink:href="#m975d614552" y="296.781149"/>
     <use style="fill:#1f77b4;stroke:#1f77b4;" x="464.522578" xlink:href="#m975d614552" y="239.018067"/>
     <use style="fill:#1f77b4;stroke:#1f77b4;" x="369.468135" xlink:href="#m975d614552" y="366.917382"/>
     <use style="fill:#1f77b4;stroke:#1f77b4;" x="442.971813" xlink:href="#m975d614552" y="182.036447"/>
     <use style="fill:#1f77b4;stroke:#1f77b4;" x="509.54842" xlink:href="#m975d614552" y="187.376439"/>
     <use style="fill:#1f77b4;stroke:#1f77b4;" x="529.850033" xlink:href="#m975d614552" y="101.871449"/>
     <use style="fill:#1f77b4;stroke:#1f77b4;" x="400.359873" xlink:href="#m975d614552" y="148.36845"/>
     <use style="fill:#1f77b4;stroke:#1f77b4;" x="376.701799" xlink:href="#m975d614552" y="205.871045"/>
     <use style="fill:#1f77b4;stroke:#1f77b4;" x="414.828347" xlink:href="#m975d614552" y="147.65211"/>
     <use style="fill:#1f77b4;stroke:#1f77b4;" x="413.417031" xlink:href="#m975d614552" y="219.611755"/>
     <use style="fill:#1f77b4;stroke:#1f77b4;" x="315.811501" xlink:href="#m975d614552" y="249.177076"/>
     <use style="fill:#1f77b4;stroke:#1f77b4;" x="179.877867" xlink:href="#m975d614552" y="289.747989"/>
     <use style="fill:#1f77b4;stroke:#1f77b4;" x="119.999631" xlink:href="#m975d614552" y="288.901405"/>
     <use style="fill:#1f77b4;stroke:#1f77b4;" x="410.8749" xlink:href="#m975d614552" y="223.779554"/>
     <use style="fill:#1f77b4;stroke:#1f77b4;" x="290.734552" xlink:href="#m975d614552" y="267.020463"/>
     <use style="fill:#1f77b4;stroke:#1f77b4;" x="300.567096" xlink:href="#m975d614552" y="204.047633"/>
     <use style="fill:#1f77b4;stroke:#1f77b4;" x="281.778345" xlink:href="#m975d614552" y="243.967327"/>
     <use style="fill:#1f77b4;stroke:#1f77b4;" x="298.172735" xlink:href="#m975d614552" y="216.485906"/>
     <use style="fill:#1f77b4;stroke:#1f77b4;" x="570.631246" xlink:href="#m975d614552" y="115.937768"/>
     <use style="fill:#1f77b4;stroke:#1f77b4;" x="396.576128" xlink:href="#m975d614552" y="147.066013"/>
     <use style="fill:#1f77b4;stroke:#1f77b4;" x="454.080829" xlink:href="#m975d614552" y="224.561016"/>
     <use style="fill:#1f77b4;stroke:#1f77b4;" x="363.820801" xlink:href="#m975d614552" y="236.217827"/>
     <use style="fill:#1f77b4;stroke:#1f77b4;" x="362.538098" xlink:href="#m975d614552" y="366.591773"/>
     <use style="fill:#1f77b4;stroke:#1f77b4;" x="466.31592" xlink:href="#m975d614552" y="262.266568"/>
     <use style="fill:#1f77b4;stroke:#1f77b4;" x="443.947299" xlink:href="#m975d614552" y="214.402007"/>
     <use style="fill:#1f77b4;stroke:#1f77b4;" x="363.924819" xlink:href="#m975d614552" y="219.937364"/>
     <use style="fill:#1f77b4;stroke:#1f77b4;" x="580.628248" xlink:href="#m975d614552" y="106.690465"/>
     <use style="fill:#1f77b4;stroke:#1f77b4;" x="423.968187" xlink:href="#m975d614552" y="206.06641"/>
     <use style="fill:#1f77b4;stroke:#1f77b4;" x="562.052328" xlink:href="#m975d614552" y="108.96973"/>
     <use style="fill:#1f77b4;stroke:#1f77b4;" x="480.498801" xlink:href="#m975d614552" y="188.092779"/>
     <use style="fill:#1f77b4;stroke:#1f77b4;" x="468.94438" xlink:href="#m975d614552" y="159.243799"/>
     <use style="fill:#1f77b4;stroke:#1f77b4;" x="420.53966" xlink:href="#m975d614552" y="142.963337"/>
     <use style="fill:#1f77b4;stroke:#1f77b4;" x="580.775274" xlink:href="#m975d614552" y="90.996099"/>
     <use style="fill:#1f77b4;stroke:#1f77b4;" x="517.166136" xlink:href="#m975d614552" y="132.478719"/>
     <use style="fill:#1f77b4;stroke:#1f77b4;" x="576.012837" xlink:href="#m975d614552" y="91.972927"/>
     <use style="fill:#1f77b4;stroke:#1f77b4;" x="554.931598" xlink:href="#m975d614552" y="100.373646"/>
     <use style="fill:#1f77b4;stroke:#1f77b4;" x="385.256301" xlink:href="#m975d614552" y="221.044436"/>
     <use style="fill:#1f77b4;stroke:#1f77b4;" x="576.621912" xlink:href="#m975d614552" y="94.317314"/>
     <use style="fill:#1f77b4;stroke:#1f77b4;" x="480.594395" xlink:href="#m975d614552" y="136.516273"/>
     <use style="fill:#1f77b4;stroke:#1f77b4;" x="510.817365" xlink:href="#m975d614552" y="152.60137"/>
     <use style="fill:#1f77b4;stroke:#1f77b4;" x="552.455307" xlink:href="#m975d614552" y="94.838289"/>
     <use style="fill:#1f77b4;stroke:#1f77b4;" x="498.557399" xlink:href="#m975d614552" y="103.304129"/>
     <use style="fill:#1f77b4;stroke:#1f77b4;" x="609.498931" xlink:href="#m975d614552" y="142.963337"/>
     <use style="fill:#1f77b4;stroke:#1f77b4;" x="509.452221" xlink:href="#m975d614552" y="117.370449"/>
     <use style="fill:#1f77b4;stroke:#1f77b4;" x="330.255259" xlink:href="#m975d614552" y="230.68247"/>
     <use style="fill:#1f77b4;stroke:#1f77b4;" x="443.472689" xlink:href="#m975d614552" y="154.880635"/>
     <use style="fill:#1f77b4;stroke:#1f77b4;" x="487.49901" xlink:href="#m975d614552" y="145.307723"/>
     <use style="fill:#1f77b4;stroke:#1f77b4;" x="505.682802" xlink:href="#m975d614552" y="105.192663"/>
     <use style="fill:#1f77b4;stroke:#1f77b4;" x="458.034637" xlink:href="#m975d614552" y="142.898215"/>
     <use style="fill:#1f77b4;stroke:#1f77b4;" x="543.416083" xlink:href="#m975d614552" y="94.90341"/>
     <use style="fill:#1f77b4;stroke:#1f77b4;" x="541.029993" xlink:href="#m975d614552" y="88.326104"/>
     <use style="fill:#1f77b4;stroke:#1f77b4;" x="484.303064" xlink:href="#m975d614552" y="137.623345"/>
     <use style="fill:#1f77b4;stroke:#1f77b4;" x="502.842065" xlink:href="#m975d614552" y="117.76118"/>
     <use style="fill:#1f77b4;stroke:#1f77b4;" x="421.852851" xlink:href="#m975d614552" y="185.487905"/>
     <use style="fill:#1f77b4;stroke:#1f77b4;" x="465.921781" xlink:href="#m975d614552" y="212.38323"/>
     <use style="fill:#1f77b4;stroke:#1f77b4;" x="552.135801" xlink:href="#m975d614552" y="118.868252"/>
     <use style="fill:#1f77b4;stroke:#1f77b4;" x="501.130361" xlink:href="#m975d614552" y="107.667293"/>
     <use style="fill:#1f77b4;stroke:#1f77b4;" x="586.513991" xlink:href="#m975d614552" y="93.600973"/>
     <use style="fill:#1f77b4;stroke:#1f77b4;" x="589.319187" xlink:href="#m975d614552" y="95.684873"/>
     <use style="fill:#1f77b4;stroke:#1f77b4;" x="291.904146" xlink:href="#m975d614552" y="323.155498"/>
     <use style="fill:#1f77b4;stroke:#1f77b4;" x="473.094431" xlink:href="#m975d614552" y="235.240999"/>
     <use style="fill:#1f77b4;stroke:#1f77b4;" x="441.872551" xlink:href="#m975d614552" y="234.589781"/>
     <use style="fill:#1f77b4;stroke:#1f77b4;" x="452.262559" xlink:href="#m975d614552" y="308.307716"/>
     <use style="fill:#1f77b4;stroke:#1f77b4;" x="340.958473" xlink:href="#m975d614552" y="254.517067"/>
     <use style="fill:#1f77b4;stroke:#1f77b4;" x="291.76877" xlink:href="#m975d614552" y="234.459537"/>
     <use style="fill:#1f77b4;stroke:#1f77b4;" x="442.058374" xlink:href="#m975d614552" y="238.887823"/>
     <use style="fill:#1f77b4;stroke:#1f77b4;" x="540.511572" xlink:href="#m975d614552" y="99.917793"/>
     <use style="fill:#1f77b4;stroke:#1f77b4;" x="299.041761" xlink:href="#m975d614552" y="348.618142"/>
     <use style="fill:#1f77b4;stroke:#1f77b4;" x="546.870059" xlink:href="#m975d614552" y="260.508278"/>
     <use style="fill:#1f77b4;stroke:#1f77b4;" x="586.976437" xlink:href="#m975d614552" y="104.932176"/>
     <use style="fill:#1f77b4;stroke:#1f77b4;" x="506.739013" xlink:href="#m975d614552" y="211.471524"/>
     <use style="fill:#1f77b4;stroke:#1f77b4;" x="322.323364" xlink:href="#m975d614552" y="245.530252"/>
     <use style="fill:#1f77b4;stroke:#1f77b4;" x="502.245298" xlink:href="#m975d614552" y="101.285352"/>
     <use style="fill:#1f77b4;stroke:#1f77b4;" x="327.471509" xlink:href="#m975d614552" y="259.336084"/>
     <use style="fill:#1f77b4;stroke:#1f77b4;" x="551.618792" xlink:href="#m975d614552" y="137.10237"/>
     <use style="fill:#1f77b4;stroke:#1f77b4;" x="186.598128" xlink:href="#m975d614552" y="405.925371"/>
     <use style="fill:#1f77b4;stroke:#1f77b4;" x="430.20008" xlink:href="#m975d614552" y="247.874639"/>
     <use style="fill:#1f77b4;stroke:#1f77b4;" x="430.812277" xlink:href="#m975d614552" y="370.108353"/>
     <use style="fill:#1f77b4;stroke:#1f77b4;" x="348.927913" xlink:href="#m975d614552" y="420.903397"/>
     <use style="fill:#1f77b4;stroke:#1f77b4;" x="394.782571" xlink:href="#m975d614552" y="396.287337"/>
     <use style="fill:#1f77b4;stroke:#1f77b4;" x="120.403802" xlink:href="#m975d614552" y="393.617341"/>
     <use style="fill:#1f77b4;stroke:#1f77b4;" x="380.628584" xlink:href="#m975d614552" y="372.387618"/>
     <use style="fill:#1f77b4;stroke:#1f77b4;" x="115.363636" xlink:href="#m975d614552" y="402.083182"/>
     <use style="fill:#1f77b4;stroke:#1f77b4;" x="394.581516" xlink:href="#m975d614552" y="191.609359"/>
     <use style="fill:#1f77b4;stroke:#1f77b4;" x="389.920547" xlink:href="#m975d614552" y="381.374433"/>
     <use style="fill:#1f77b4;stroke:#1f77b4;" x="220.854411" xlink:href="#m975d614552" y="358.38642"/>
     <use style="fill:#1f77b4;stroke:#1f77b4;" x="448.8422" xlink:href="#m975d614552" y="328.690856"/>
     <use style="fill:#1f77b4;stroke:#1f77b4;" x="436.40929" xlink:href="#m975d614552" y="295.804321"/>
     <use style="fill:#1f77b4;stroke:#1f77b4;" x="466.704041" xlink:href="#m975d614552" y="235.436365"/>
     <use style="fill:#1f77b4;stroke:#1f77b4;" x="369.468135" xlink:href="#m975d614552" y="360.535441"/>
     <use style="fill:#1f77b4;stroke:#1f77b4;" x="433.501666" xlink:href="#m975d614552" y="176.631334"/>
     <use style="fill:#1f77b4;stroke:#1f77b4;" x="504.330976" xlink:href="#m975d614552" y="195.972523"/>
     <use style="fill:#1f77b4;stroke:#1f77b4;" x="531.518932" xlink:href="#m975d614552" y="98.354869"/>
     <use style="fill:#1f77b4;stroke:#1f77b4;" x="397.763647" xlink:href="#m975d614552" y="147.586988"/>
     <use style="fill:#1f77b4;stroke:#1f77b4;" x="369.598055" xlink:href="#m975d614552" y="208.86665"/>
     <use style="fill:#1f77b4;stroke:#1f77b4;" x="410.753888" xlink:href="#m975d614552" y="149.280156"/>
     <use style="fill:#1f77b4;stroke:#1f77b4;" x="413.417031" xlink:href="#m975d614552" y="216.746394"/>
     <use style="fill:#1f77b4;stroke:#1f77b4;" x="316.814065" xlink:href="#m975d614552" y="251.45634"/>
     <use style="fill:#1f77b4;stroke:#1f77b4;" x="154.294299" xlink:href="#m975d614552" y="280.63093"/>
     <use style="fill:#1f77b4;stroke:#1f77b4;" x="172.639456" xlink:href="#m975d614552" y="281.672879"/>
     <use style="fill:#1f77b4;stroke:#1f77b4;" x="402.000829" xlink:href="#m975d614552" y="215.053226"/>
     <use style="fill:#1f77b4;stroke:#1f77b4;" x="290.734552" xlink:href="#m975d614552" y="261.550227"/>
     <use style="fill:#1f77b4;stroke:#1f77b4;" x="316.610888" xlink:href="#m975d614552" y="201.11715"/>
     <use style="fill:#1f77b4;stroke:#1f77b4;" x="298.046815" xlink:href="#m975d614552" y="236.803924"/>
     <use style="fill:#1f77b4;stroke:#1f77b4;" x="300.379695" xlink:href="#m975d614552" y="214.206642"/>
     <use style="fill:#1f77b4;stroke:#1f77b4;" x="572.023759" xlink:href="#m975d614552" y="121.863857"/>
     <use style="fill:#1f77b4;stroke:#1f77b4;" x="406.448622" xlink:href="#m975d614552" y="152.340883"/>
     <use style="fill:#1f77b4;stroke:#1f77b4;" x="454.080829" xlink:href="#m975d614552" y="227.100768"/>
     <use style="fill:#1f77b4;stroke:#1f77b4;" x="366.824623" xlink:href="#m975d614552" y="233.612953"/>
     <use style="fill:#1f77b4;stroke:#1f77b4;" x="360.745034" xlink:href="#m975d614552" y="363.531046"/>
     <use style="fill:#1f77b4;stroke:#1f77b4;" x="466.31592" xlink:href="#m975d614552" y="260.117547"/>
     <use style="fill:#1f77b4;stroke:#1f77b4;" x="440.27389" xlink:href="#m975d614552" y="204.503486"/>
     <use style="fill:#1f77b4;stroke:#1f77b4;" x="357.835303" xlink:href="#m975d614552" y="220.002486"/>
     <use style="fill:#1f77b4;stroke:#1f77b4;" x="582.763248" xlink:href="#m975d614552" y="104.215835"/>
     <use style="fill:#1f77b4;stroke:#1f77b4;" x="424.079013" xlink:href="#m975d614552" y="197.470326"/>
     <use style="fill:#1f77b4;stroke:#1f77b4;" x="565.323971" xlink:href="#m975d614552" y="106.885831"/>
     <use style="fill:#1f77b4;stroke:#1f77b4;" x="462.502726" xlink:href="#m975d614552" y="179.236208"/>
     <use style="fill:#1f77b4;stroke:#1f77b4;" x="471.226716" xlink:href="#m975d614552" y="158.071606"/>
     <use style="fill:#1f77b4;stroke:#1f77b4;" x="429.737671" xlink:href="#m975d614552" y="139.121147"/>
     <use style="fill:#1f77b4;stroke:#1f77b4;" x="582.154969" xlink:href="#m975d614552" y="85.656108"/>
     <use style="fill:#1f77b4;stroke:#1f77b4;" x="503.132312" xlink:href="#m975d614552" y="129.808723"/>
     <use style="fill:#1f77b4;stroke:#1f77b4;" x="571.431602" xlink:href="#m975d614552" y="88.260982"/>
     <use style="fill:#1f77b4;stroke:#1f77b4;" x="553.208228" xlink:href="#m975d614552" y="99.592184"/>
     <use style="fill:#1f77b4;stroke:#1f77b4;" x="380.01346" xlink:href="#m975d614552" y="211.080793"/>
     <use style="fill:#1f77b4;stroke:#1f77b4;" x="576.775" xlink:href="#m975d614552" y="93.796339"/>
     <use style="fill:#1f77b4;stroke:#1f77b4;" x="483.495335" xlink:href="#m975d614552" y="142.702849"/>
     <use style="fill:#1f77b4;stroke:#1f77b4;" x="500.122559" xlink:href="#m975d614552" y="156.44356"/>
     <use style="fill:#1f77b4;stroke:#1f77b4;" x="549.026532" xlink:href="#m975d614552" y="93.991705"/>
     <use style="fill:#1f77b4;stroke:#1f77b4;" x="497.544239" xlink:href="#m975d614552" y="101.480717"/>
     <use style="fill:#1f77b4;stroke:#1f77b4;" x="614.440794" xlink:href="#m975d614552" y="141.465534"/>
     <use style="fill:#1f77b4;stroke:#1f77b4;" x="511.374516" xlink:href="#m975d614552" y="112.877041"/>
     <use style="fill:#1f77b4;stroke:#1f77b4;" x="314.78498" xlink:href="#m975d614552" y="229.96613"/>
     <use style="fill:#1f77b4;stroke:#1f77b4;" x="413.07974" xlink:href="#m975d614552" y="151.559421"/>
     <use style="fill:#1f77b4;stroke:#1f77b4;" x="469.255202" xlink:href="#m975d614552" y="141.595778"/>
     <use style="fill:#1f77b4;stroke:#1f77b4;" x="506.434537" xlink:href="#m975d614552" y="103.955348"/>
     <use style="fill:#1f77b4;stroke:#1f77b4;" x="434.939437" xlink:href="#m975d614552" y="136.38603"/>
     <use style="fill:#1f77b4;stroke:#1f77b4;" x="543.937422" xlink:href="#m975d614552" y="95.098776"/>
     <use style="fill:#1f77b4;stroke:#1f77b4;" x="545.395459" xlink:href="#m975d614552" y="85.070011"/>
     <use style="fill:#1f77b4;stroke:#1f77b4;" x="480.854489" xlink:href="#m975d614552" y="142.442362"/>
     <use style="fill:#1f77b4;stroke:#1f77b4;" x="505.463918" xlink:href="#m975d614552" y="112.551432"/>
     <use style="fill:#1f77b4;stroke:#1f77b4;" x="420.492776" xlink:href="#m975d614552" y="183.404006"/>
     <use style="fill:#1f77b4;stroke:#1f77b4;" x="468.865984" xlink:href="#m975d614552" y="202.810318"/>
     <use style="fill:#1f77b4;stroke:#1f77b4;" x="544.588374" xlink:href="#m975d614552" y="113.007285"/>
     <use style="fill:#1f77b4;stroke:#1f77b4;" x="498.746923" xlink:href="#m975d614552" y="105.388028"/>
     <use style="fill:#1f77b4;stroke:#1f77b4;" x="586.647922" xlink:href="#m975d614552" y="89.889028"/>
     <use style="fill:#1f77b4;stroke:#1f77b4;" x="589.335374" xlink:href="#m975d614552" y="90.930978"/>
     <use style="fill:#1f77b4;stroke:#1f77b4;" x="290.257391" xlink:href="#m975d614552" y="321.853061"/>
     <use style="fill:#1f77b4;stroke:#1f77b4;" x="479.087868" xlink:href="#m975d614552" y="241.94855"/>
     <use style="fill:#1f77b4;stroke:#1f77b4;" x="421.042956" xlink:href="#m975d614552" y="237.910995"/>
     <use style="fill:#1f77b4;stroke:#1f77b4;" x="449.469283" xlink:href="#m975d614552" y="300.493094"/>
     <use style="fill:#1f77b4;stroke:#1f77b4;" x="362.29127" xlink:href="#m975d614552" y="249.69805"/>
     <use style="fill:#1f77b4;stroke:#1f77b4;" x="291.76877" xlink:href="#m975d614552" y="227.035646"/>
     <use style="fill:#1f77b4;stroke:#1f77b4;" x="462.518274" xlink:href="#m975d614552" y="238.171483"/>
     <use style="fill:#1f77b4;stroke:#1f77b4;" x="539.473782" xlink:href="#m975d614552" y="98.094381"/>
     <use style="fill:#1f77b4;stroke:#1f77b4;" x="299.041761" xlink:href="#m975d614552" y="347.315705"/>
     <use style="fill:#1f77b4;stroke:#1f77b4;" x="549.05312" xlink:href="#m975d614552" y="255.038042"/>
     <use style="fill:#1f77b4;stroke:#1f77b4;" x="583.572641" xlink:href="#m975d614552" y="102.131936"/>
     <use style="fill:#1f77b4;stroke:#1f77b4;" x="515.411666" xlink:href="#m975d614552" y="206.978116"/>
     <use style="fill:#1f77b4;stroke:#1f77b4;" x="337.064394" xlink:href="#m975d614552" y="244.097571"/>
     <use style="fill:#1f77b4;stroke:#1f77b4;" x="506.745678" xlink:href="#m975d614552" y="97.312919"/>
     <use style="fill:#1f77b4;stroke:#1f77b4;" x="327.471509" xlink:href="#m975d614552" y="263.373639"/>
     <use style="fill:#1f77b4;stroke:#1f77b4;" x="547.476103" xlink:href="#m975d614552" y="134.237008"/>
     <use style="fill:#1f77b4;stroke:#1f77b4;" x="186.598128" xlink:href="#m975d614552" y="403.125131"/>
     <use style="fill:#1f77b4;stroke:#1f77b4;" x="430.20008" xlink:href="#m975d614552" y="245.725617"/>
     <use style="fill:#1f77b4;stroke:#1f77b4;" x="453.209853" xlink:href="#m975d614552" y="365.745189"/>
     <use style="fill:#1f77b4;stroke:#1f77b4;" x="348.927913" xlink:href="#m975d614552" y="416.735598"/>
     <use style="fill:#1f77b4;stroke:#1f77b4;" x="371.98918" xlink:href="#m975d614552" y="388.342471"/>
     <use style="fill:#1f77b4;stroke:#1f77b4;" x="118.127596" xlink:href="#m975d614552" y="391.533442"/>
     <use style="fill:#1f77b4;stroke:#1f77b4;" x="377.297755" xlink:href="#m975d614552" y="373.038836"/>
     <use style="fill:#1f77b4;stroke:#1f77b4;" x="115.363636" xlink:href="#m975d614552" y="403.971715"/>
     <use style="fill:#1f77b4;stroke:#1f77b4;" x="397.026609" xlink:href="#m975d614552" y="188.939363"/>
     <use style="fill:#1f77b4;stroke:#1f77b4;" x="389.920547" xlink:href="#m975d614552" y="380.137118"/>
     <use style="fill:#1f77b4;stroke:#1f77b4;" x="220.854411" xlink:href="#m975d614552" y="352.525453"/>
     <use style="fill:#1f77b4;stroke:#1f77b4;" x="448.8422" xlink:href="#m975d614552" y="331.360852"/>
     <use style="fill:#1f77b4;stroke:#1f77b4;" x="436.40929" xlink:href="#m975d614552" y="290.659695"/>
     <use style="fill:#1f77b4;stroke:#1f77b4;" x="468.103089" xlink:href="#m975d614552" y="236.608558"/>
     <use style="fill:#1f77b4;stroke:#1f77b4;" x="369.468135" xlink:href="#m975d614552" y="356.367642"/>
     <use style="fill:#1f77b4;stroke:#1f77b4;" x="430.881099" xlink:href="#m975d614552" y="174.156703"/>
     <use style="fill:#1f77b4;stroke:#1f77b4;" x="504.268589" xlink:href="#m975d614552" y="196.884229"/>
     <use style="fill:#1f77b4;stroke:#1f77b4;" x="528.536889" xlink:href="#m975d614552" y="93.079999"/>
     <use style="fill:#1f77b4;stroke:#1f77b4;" x="394.341584" xlink:href="#m975d614552" y="143.614555"/>
     <use style="fill:#1f77b4;stroke:#1f77b4;" x="361.436055" xlink:href="#m975d614552" y="206.978116"/>
     <use style="fill:#1f77b4;stroke:#1f77b4;" x="409.554842" xlink:href="#m975d614552" y="149.215034"/>
     <use style="fill:#1f77b4;stroke:#1f77b4;" x="413.417031" xlink:href="#m975d614552" y="211.080793"/>
     <use style="fill:#1f77b4;stroke:#1f77b4;" x="336.00911" xlink:href="#m975d614552" y="250.935366"/>
     <use style="fill:#1f77b4;stroke:#1f77b4;" x="174.24779" xlink:href="#m975d614552" y="279.979711"/>
     <use style="fill:#1f77b4;stroke:#1f77b4;" x="205.148954" xlink:href="#m975d614552" y="280.565808"/>
     <use style="fill:#1f77b4;stroke:#1f77b4;" x="387.520902" xlink:href="#m975d614552" y="213.360058"/>
     <use style="fill:#1f77b4;stroke:#1f77b4;" x="290.734552" xlink:href="#m975d614552" y="265.066807"/>
     <use style="fill:#1f77b4;stroke:#1f77b4;" x="317.905417" xlink:href="#m975d614552" y="202.875439"/>
     <use style="fill:#1f77b4;stroke:#1f77b4;" x="318.983192" xlink:href="#m975d614552" y="236.608558"/>
     <use style="fill:#1f77b4;stroke:#1f77b4;" x="301.055313" xlink:href="#m975d614552" y="211.34128"/>
     <use style="fill:#1f77b4;stroke:#1f77b4;" x="573.761876" xlink:href="#m975d614552" y="124.012878"/>
     <use style="fill:#1f77b4;stroke:#1f77b4;" x="421.139685" xlink:href="#m975d614552" y="154.294539"/>
     <use style="fill:#1f77b4;stroke:#1f77b4;" x="454.080829" xlink:href="#m975d614552" y="221.695654"/>
     <use style="fill:#1f77b4;stroke:#1f77b4;" x="355.78519" xlink:href="#m975d614552" y="228.598571"/>
     <use style="fill:#1f77b4;stroke:#1f77b4;" x="358.914075" xlink:href="#m975d614552" y="356.432764"/>
     <use style="fill:#1f77b4;stroke:#1f77b4;" x="466.31592" xlink:href="#m975d614552" y="257.447551"/>
     <use style="fill:#1f77b4;stroke:#1f77b4;" x="440.017993" xlink:href="#m975d614552" y="203.982511"/>
     <use style="fill:#1f77b4;stroke:#1f77b4;" x="355.891707" xlink:href="#m975d614552" y="215.834688"/>
     <use style="fill:#1f77b4;stroke:#1f77b4;" x="580.694412" xlink:href="#m975d614552" y="105.322907"/>
     <use style="fill:#1f77b4;stroke:#1f77b4;" x="437.44031" xlink:href="#m975d614552" y="192.846674"/>
     <use style="fill:#1f77b4;stroke:#1f77b4;" x="570.149127" xlink:href="#m975d614552" y="105.713638"/>
     <use style="fill:#1f77b4;stroke:#1f77b4;" x="459.37375" xlink:href="#m975d614552" y="177.347674"/>
     <use style="fill:#1f77b4;stroke:#1f77b4;" x="471.407293" xlink:href="#m975d614552" y="152.340883"/>
     <use style="fill:#1f77b4;stroke:#1f77b4;" x="433.930566" xlink:href="#m975d614552" y="135.930177"/>
     <use style="fill:#1f77b4;stroke:#1f77b4;" x="580.520517" xlink:href="#m975d614552" y="86.893423"/>
     <use style="fill:#1f77b4;stroke:#1f77b4;" x="505.99396" xlink:href="#m975d614552" y="129.35287"/>
     <use style="fill:#1f77b4;stroke:#1f77b4;" x="571.880891" xlink:href="#m975d614552" y="89.368053"/>
     <use style="fill:#1f77b4;stroke:#1f77b4;" x="552.550419" xlink:href="#m975d614552" y="99.006087"/>
     <use style="fill:#1f77b4;stroke:#1f77b4;" x="377.08666" xlink:href="#m975d614552" y="206.847872"/>
     <use style="fill:#1f77b4;stroke:#1f77b4;" x="580.282123" xlink:href="#m975d614552" y="93.47073"/>
     <use style="fill:#1f77b4;stroke:#1f77b4;" x="494.694021" xlink:href="#m975d614552" y="139.511878"/>
     <use style="fill:#1f77b4;stroke:#1f77b4;" x="509.932151" xlink:href="#m975d614552" y="155.010879"/>
     <use style="fill:#1f77b4;stroke:#1f77b4;" x="548.483986" xlink:href="#m975d614552" y="89.95415"/>
     <use style="fill:#1f77b4;stroke:#1f77b4;" x="496.708256" xlink:href="#m975d614552" y="96.922188"/>
     <use style="fill:#1f77b4;stroke:#1f77b4;" x="620.210432" xlink:href="#m975d614552" y="140.61895"/>
     <use style="fill:#1f77b4;stroke:#1f77b4;" x="511.765357" xlink:href="#m975d614552" y="110.076802"/>
     <use style="fill:#1f77b4;stroke:#1f77b4;" x="307.07701" xlink:href="#m975d614552" y="228.20784"/>
     <use style="fill:#1f77b4;stroke:#1f77b4;" x="425.705938" xlink:href="#m975d614552" y="150.387228"/>
     <use style="fill:#1f77b4;stroke:#1f77b4;" x="474.708834" xlink:href="#m975d614552" y="141.139925"/>
     <use style="fill:#1f77b4;stroke:#1f77b4;" x="506.969994" xlink:href="#m975d614552" y="103.043642"/>
     <use style="fill:#1f77b4;stroke:#1f77b4;" x="437.238356" xlink:href="#m975d614552" y="134.237008"/>
     <use style="fill:#1f77b4;stroke:#1f77b4;" x="543.337917" xlink:href="#m975d614552" y="94.382436"/>
     <use style="fill:#1f77b4;stroke:#1f77b4;" x="548.02953" xlink:href="#m975d614552" y="83.897818"/>
     <use style="fill:#1f77b4;stroke:#1f77b4;" x="486.956328" xlink:href="#m975d614552" y="143.875042"/>
     <use style="fill:#1f77b4;stroke:#1f77b4;" x="508.62008" xlink:href="#m975d614552" y="111.118751"/>
     <use style="fill:#1f77b4;stroke:#1f77b4;" x="424.643065" xlink:href="#m975d614552" y="185.683271"/>
     <use style="fill:#1f77b4;stroke:#1f77b4;" x="472.307551" xlink:href="#m975d614552" y="203.396414"/>
     <use style="fill:#1f77b4;stroke:#1f77b4;" x="538.056894" xlink:href="#m975d614552" y="113.658504"/>
     <use style="fill:#1f77b4;stroke:#1f77b4;" x="500.235437" xlink:href="#m975d614552" y="105.583394"/>
     <use style="fill:#1f77b4;stroke:#1f77b4;" x="589.963299" xlink:href="#m975d614552" y="91.777562"/>
     <use style="fill:#1f77b4;stroke:#1f77b4;" x="589.351558" xlink:href="#m975d614552" y="90.67049"/>
     <use style="fill:#1f77b4;stroke:#1f77b4;" x="296.912731" xlink:href="#m975d614552" y="321.332087"/>
     <use style="fill:#1f77b4;stroke:#1f77b4;" x="480.579972" xlink:href="#m975d614552" y="238.562214"/>
     <use style="fill:#1f77b4;stroke:#1f77b4;" x="414.531302" xlink:href="#m975d614552" y="235.175878"/>
     <use style="fill:#1f77b4;stroke:#1f77b4;" x="448.786268" xlink:href="#m975d614552" y="296.520661"/>
     <use style="fill:#1f77b4;stroke:#1f77b4;" x="359.692599" xlink:href="#m975d614552" y="247.744395"/>
     <use style="fill:#1f77b4;stroke:#1f77b4;" x="291.76877" xlink:href="#m975d614552" y="225.602965"/>
     <use style="fill:#1f77b4;stroke:#1f77b4;" x="484.370395" xlink:href="#m975d614552" y="236.738802"/>
     <use style="fill:#1f77b4;stroke:#1f77b4;" x="538.423409" xlink:href="#m975d614552" y="96.205847"/>
     <use style="fill:#1f77b4;stroke:#1f77b4;" x="299.041761" xlink:href="#m975d614552" y="346.143512"/>
     <use style="fill:#1f77b4;stroke:#1f77b4;" x="550.142742" xlink:href="#m975d614552" y="252.237803"/>
     <use style="fill:#1f77b4;stroke:#1f77b4;" x="585.132422" xlink:href="#m975d614552" y="95.619751"/>
     <use style="fill:#1f77b4;stroke:#1f77b4;" x="515.411666" xlink:href="#m975d614552" y="203.070805"/>
     <use style="fill:#1f77b4;stroke:#1f77b4;" x="310.372926" xlink:href="#m975d614552" y="244.618546"/>
     <use style="fill:#1f77b4;stroke:#1f77b4;" x="511.023783" xlink:href="#m975d614552" y="94.056826"/>
     <use style="fill:#1f77b4;stroke:#1f77b4;" x="327.471509" xlink:href="#m975d614552" y="261.810715"/>
     <use style="fill:#1f77b4;stroke:#1f77b4;" x="541.627358" xlink:href="#m975d614552" y="131.241403"/>
     <use style="fill:#1f77b4;stroke:#1f77b4;" x="186.598128" xlink:href="#m975d614552" y="392.770757"/>
     <use style="fill:#1f77b4;stroke:#1f77b4;" x="430.20008" xlink:href="#m975d614552" y="242.9905"/>
     <use style="fill:#1f77b4;stroke:#1f77b4;" x="453.209853" xlink:href="#m975d614552" y="358.646907"/>
     <use style="fill:#1f77b4;stroke:#1f77b4;" x="348.927913" xlink:href="#m975d614552" y="415.498283"/>
     <use style="fill:#1f77b4;stroke:#1f77b4;" x="371.98918" xlink:href="#m975d614552" y="374.341273"/>
     <use style="fill:#1f77b4;stroke:#1f77b4;" x="118.127596" xlink:href="#m975d614552" y="386.258572"/>
     <use style="fill:#1f77b4;stroke:#1f77b4;" x="377.297755" xlink:href="#m975d614552" y="370.629328"/>
     <use style="fill:#1f77b4;stroke:#1f77b4;" x="115.363636" xlink:href="#m975d614552" y="393.617341"/>
     <use style="fill:#1f77b4;stroke:#1f77b4;" x="392.065407" xlink:href="#m975d614552" y="182.427178"/>
     <use style="fill:#1f77b4;stroke:#1f77b4;" x="389.920547" xlink:href="#m975d614552" y="374.471517"/>
     <use style="fill:#1f77b4;stroke:#1f77b4;" x="220.854411" xlink:href="#m975d614552" y="354.609352"/>
     <use style="fill:#1f77b4;stroke:#1f77b4;" x="448.8422" xlink:href="#m975d614552" y="325.174276"/>
     <use style="fill:#1f77b4;stroke:#1f77b4;" x="436.40929" xlink:href="#m975d614552" y="288.510674"/>
     <use style="fill:#1f77b4;stroke:#1f77b4;" x="468.103089" xlink:href="#m975d614552" y="230.877835"/>
     <use style="fill:#1f77b4;stroke:#1f77b4;" x="369.468135" xlink:href="#m975d614552" y="353.697646"/>
     <use style="fill:#1f77b4;stroke:#1f77b4;" x="430.881099" xlink:href="#m975d614552" y="169.533052"/>
     <use style="fill:#1f77b4;stroke:#1f77b4;" x="504.268589" xlink:href="#m975d614552" y="195.51667"/>
     <use style="fill:#1f77b4;stroke:#1f77b4;" x="522.894502" xlink:href="#m975d614552" y="91.71244"/>
     <use style="fill:#1f77b4;stroke:#1f77b4;" x="394.341584" xlink:href="#m975d614552" y="148.954547"/>
     <use style="fill:#1f77b4;stroke:#1f77b4;" x="359.287762" xlink:href="#m975d614552" y="212.187864"/>
     <use style="fill:#1f77b4;stroke:#1f77b4;" x="409.554842" xlink:href="#m975d614552" y="144.85187"/>
     <use style="fill:#1f77b4;stroke:#1f77b4;" x="413.417031" xlink:href="#m975d614552" y="201.963734"/>
     <use style="fill:#1f77b4;stroke:#1f77b4;" x="336.00911" xlink:href="#m975d614552" y="249.046832"/>
     <use style="fill:#1f77b4;stroke:#1f77b4;" x="174.24779" xlink:href="#m975d614552" y="281.477514"/>
     <use style="fill:#1f77b4;stroke:#1f77b4;" x="205.148954" xlink:href="#m975d614552" y="277.309715"/>
     <use style="fill:#1f77b4;stroke:#1f77b4;" x="383.175438" xlink:href="#m975d614552" y="204.373242"/>
     <use style="fill:#1f77b4;stroke:#1f77b4;" x="290.734552" xlink:href="#m975d614552" y="286.036043"/>
     <use style="fill:#1f77b4;stroke:#1f77b4;" x="317.905417" xlink:href="#m975d614552" y="188.418389"/>
     <use style="fill:#1f77b4;stroke:#1f77b4;" x="318.983192" xlink:href="#m975d614552" y="232.44076"/>
     <use style="fill:#1f77b4;stroke:#1f77b4;" x="305.268356" xlink:href="#m975d614552" y="205.675679"/>
     <use style="fill:#1f77b4;stroke:#1f77b4;" x="574.382347" xlink:href="#m975d614552" y="125.51068"/>
     <use style="fill:#1f77b4;stroke:#1f77b4;" x="421.139685" xlink:href="#m975d614552" y="163.606963"/>
     <use style="fill:#1f77b4;stroke:#1f77b4;" x="454.080829" xlink:href="#m975d614552" y="217.006881"/>
     <use style="fill:#1f77b4;stroke:#1f77b4;" x="352.689099" xlink:href="#m975d614552" y="220.197852"/>
     <use style="fill:#1f77b4;stroke:#1f77b4;" x="358.914075" xlink:href="#m975d614552" y="356.172277"/>
     <use style="fill:#1f77b4;stroke:#1f77b4;" x="466.31592" xlink:href="#m975d614552" y="253.605361"/>
     <use style="fill:#1f77b4;stroke:#1f77b4;" x="439.761338" xlink:href="#m975d614552" y="199.03325"/>
     <use style="fill:#1f77b4;stroke:#1f77b4;" x="339.743951" xlink:href="#m975d614552" y="206.782751"/>
     <use style="fill:#1f77b4;stroke:#1f77b4;" x="584.025887" xlink:href="#m975d614552" y="107.406806"/>
     <use style="fill:#1f77b4;stroke:#1f77b4;" x="440.937414" xlink:href="#m975d614552" y="188.80912"/>
     <use style="fill:#1f77b4;stroke:#1f77b4;" x="573.878035" xlink:href="#m975d614552" y="104.997297"/>
     <use style="fill:#1f77b4;stroke:#1f77b4;" x="461.156213" xlink:href="#m975d614552" y="174.026459"/>
     <use style="fill:#1f77b4;stroke:#1f77b4;" x="481.818723" xlink:href="#m975d614552" y="154.229417"/>
     <use style="fill:#1f77b4;stroke:#1f77b4;" x="433.569937" xlink:href="#m975d614552" y="128.636529"/>
     <use style="fill:#1f77b4;stroke:#1f77b4;" x="581.033243" xlink:href="#m975d614552" y="83.376843"/>
     <use style="fill:#1f77b4;stroke:#1f77b4;" x="514.715371" xlink:href="#m975d614552" y="123.166294"/>
     <use style="fill:#1f77b4;stroke:#1f77b4;" x="572.410672" xlink:href="#m975d614552" y="86.828301"/>
     <use style="fill:#1f77b4;stroke:#1f77b4;" x="552.332136" xlink:href="#m975d614552" y="98.354869"/>
     <use style="fill:#1f77b4;stroke:#1f77b4;" x="381.023454" xlink:href="#m975d614552" y="205.480314"/>
     <use style="fill:#1f77b4;stroke:#1f77b4;" x="581.879326" xlink:href="#m975d614552" y="91.517074"/>
     <use style="fill:#1f77b4;stroke:#1f77b4;" x="498.164595" xlink:href="#m975d614552" y="132.934571"/>
     <use style="fill:#1f77b4;stroke:#1f77b4;" x="522.26105" xlink:href="#m975d614552" y="157.094778"/>
     <use style="fill:#1f77b4;stroke:#1f77b4;" x="545.361323" xlink:href="#m975d614552" y="88.586591"/>
     <use style="fill:#1f77b4;stroke:#1f77b4;" x="495.864128" xlink:href="#m975d614552" y="97.182675"/>
     <use style="fill:#1f77b4;stroke:#1f77b4;" x="622.636364" xlink:href="#m975d614552" y="139.707244"/>
     <use style="fill:#1f77b4;stroke:#1f77b4;" x="513.116486" xlink:href="#m975d614552" y="112.030457"/>
     <use style="fill:#1f77b4;stroke:#1f77b4;" x="302.369793" xlink:href="#m975d614552" y="225.928575"/>
     <use style="fill:#1f77b4;stroke:#1f77b4;" x="444.086154" xlink:href="#m975d614552" y="146.349673"/>
     <use style="fill:#1f77b4;stroke:#1f77b4;" x="479.117211" xlink:href="#m975d614552" y="140.61895"/>
     <use style="fill:#1f77b4;stroke:#1f77b4;" x="502.35194" xlink:href="#m975d614552" y="99.201453"/>
     <use style="fill:#1f77b4;stroke:#1f77b4;" x="436.021168" xlink:href="#m975d614552" y="131.957744"/>
     <use style="fill:#1f77b4;stroke:#1f77b4;" x="550.891518" xlink:href="#m975d614552" y="94.968532"/>
     <use style="fill:#1f77b4;stroke:#1f77b4;" x="547.048132" xlink:href="#m975d614552" y="77.776364"/>
     <use style="fill:#1f77b4;stroke:#1f77b4;" x="500.699779" xlink:href="#m975d614552" y="140.944559"/>
     <use style="fill:#1f77b4;stroke:#1f77b4;" x="511.012363" xlink:href="#m975d614552" y="102.718033"/>
     <use style="fill:#1f77b4;stroke:#1f77b4;" x="424.849138" xlink:href="#m975d614552" y="182.883031"/>
     <use style="fill:#1f77b4;stroke:#1f77b4;" x="476.922254" xlink:href="#m975d614552" y="203.852267"/>
     <use style="fill:#1f77b4;stroke:#1f77b4;" x="541.533733" xlink:href="#m975d614552" y="111.314117"/>
     <use style="fill:#1f77b4;stroke:#1f77b4;" x="502.448646" xlink:href="#m975d614552" y="100.438768"/>
     <use style="fill:#1f77b4;stroke:#1f77b4;" x="588.48702" xlink:href="#m975d614552" y="87.544641"/>
     <use style="fill:#1f77b4;stroke:#1f77b4;" x="589.351558" xlink:href="#m975d614552" y="84.67928"/>
     <use style="fill:#1f77b4;stroke:#1f77b4;" x="281.921325" xlink:href="#m975d614552" y="312.410393"/>
     <use style="fill:#1f77b4;stroke:#1f77b4;" x="480.579972" xlink:href="#m975d614552" y="230.552226"/>
     <use style="fill:#1f77b4;stroke:#1f77b4;" x="418.85589" xlink:href="#m975d614552" y="233.938562"/>
     <use style="fill:#1f77b4;stroke:#1f77b4;" x="446.697646" xlink:href="#m975d614552" y="285.189459"/>
     <use style="fill:#1f77b4;stroke:#1f77b4;" x="355.304234" xlink:href="#m975d614552" y="243.381231"/>
     <use style="fill:#1f77b4;stroke:#1f77b4;" x="291.76877" xlink:href="#m975d614552" y="220.13273"/>
     <use style="fill:#1f77b4;stroke:#1f77b4;" x="484.370395" xlink:href="#m975d614552" y="230.68247"/>
     <use style="fill:#1f77b4;stroke:#1f77b4;" x="538.423409" xlink:href="#m975d614552" y="96.857066"/>
     <use style="fill:#1f77b4;stroke:#1f77b4;" x="299.041761" xlink:href="#m975d614552" y="342.105957"/>
     <use style="fill:#1f77b4;stroke:#1f77b4;" x="551.765578" xlink:href="#m975d614552" y="249.763172"/>
     <use style="fill:#1f77b4;stroke:#1f77b4;" x="586.522749" xlink:href="#m975d614552" y="94.773167"/>
     <use style="fill:#1f77b4;stroke:#1f77b4;" x="515.411666" xlink:href="#m975d614552" y="187.05083"/>
     <use style="fill:#1f77b4;stroke:#1f77b4;" x="287.035401" xlink:href="#m975d614552" y="242.860256"/>
     <use style="fill:#1f77b4;stroke:#1f77b4;" x="511.023783" xlink:href="#m975d614552" y="90.930978"/>
     <use style="fill:#1f77b4;stroke:#1f77b4;" x="327.471509" xlink:href="#m975d614552" y="257.187063"/>
     <use style="fill:#1f77b4;stroke:#1f77b4;" x="541.627358" xlink:href="#m975d614552" y="128.050433"/>
    </g>
   </g>
   <g id="matplotlib.axis_1">
    <g id="xtick_1">
     <g id="line2d_1">
      <defs>
       <path d="M 0 0 
L 0 3.5 
" id="md34f8dbfd5" style="stroke:#000000;stroke-width:0.8;"/>
      </defs>
      <g>
       <use style="stroke:#000000;stroke-width:0.8;" x="137.474881" xlink:href="#md34f8dbfd5" y="441"/>
      </g>
     </g>
     <g id="text_1">
      <!-- 4 -->
      <defs>
       <path d="M 10.59375 35.5 
L 73.1875 35.5 
L 73.1875 27.203125 
L 10.59375 27.203125 
z
" id="DejaVuSans-8722"/>
       <path d="M 37.796875 64.3125 
L 12.890625 25.390625 
L 37.796875 25.390625 
z
M 35.203125 72.90625 
L 47.609375 72.90625 
L 47.609375 25.390625 
L 58.015625 25.390625 
L 58.015625 17.1875 
L 47.609375 17.1875 
L 47.609375 0 
L 37.796875 0 
L 37.796875 17.1875 
L 4.890625 17.1875 
L 4.890625 26.703125 
z
" id="DejaVuSans-52"/>
      </defs>
      <g transform="translate(127.892459 457.877969)scale(0.13 -0.13)">
       <use xlink:href="#DejaVuSans-8722"/>
       <use x="83.789062" xlink:href="#DejaVuSans-52"/>
      </g>
     </g>
    </g>
    <g id="xtick_2">
     <g id="line2d_2">
      <g>
       <use style="stroke:#000000;stroke-width:0.8;" x="224.111648" xlink:href="#md34f8dbfd5" y="441"/>
      </g>
     </g>
     <g id="text_2">
      <!-- 3 -->
      <defs>
       <path d="M 40.578125 39.3125 
Q 47.65625 37.796875 51.625 33 
Q 55.609375 28.21875 55.609375 21.1875 
Q 55.609375 10.40625 48.1875 4.484375 
Q 40.765625 -1.421875 27.09375 -1.421875 
Q 22.515625 -1.421875 17.65625 -0.515625 
Q 12.796875 0.390625 7.625 2.203125 
L 7.625 11.71875 
Q 11.71875 9.328125 16.59375 8.109375 
Q 21.484375 6.890625 26.8125 6.890625 
Q 36.078125 6.890625 40.9375 10.546875 
Q 45.796875 14.203125 45.796875 21.1875 
Q 45.796875 27.640625 41.28125 31.265625 
Q 36.765625 34.90625 28.71875 34.90625 
L 20.21875 34.90625 
L 20.21875 43.015625 
L 29.109375 43.015625 
Q 36.375 43.015625 40.234375 45.921875 
Q 44.09375 48.828125 44.09375 54.296875 
Q 44.09375 59.90625 40.109375 62.90625 
Q 36.140625 65.921875 28.71875 65.921875 
Q 24.65625 65.921875 20.015625 65.03125 
Q 15.375 64.15625 9.8125 62.3125 
L 9.8125 71.09375 
Q 15.4375 72.65625 20.34375 73.4375 
Q 25.25 74.21875 29.59375 74.21875 
Q 40.828125 74.21875 47.359375 69.109375 
Q 53.90625 64.015625 53.90625 55.328125 
Q 53.90625 49.265625 50.4375 45.09375 
Q 46.96875 40.921875 40.578125 39.3125 
z
" id="DejaVuSans-51"/>
      </defs>
      <g transform="translate(214.529226 457.877969)scale(0.13 -0.13)">
       <use xlink:href="#DejaVuSans-8722"/>
       <use x="83.789062" xlink:href="#DejaVuSans-51"/>
      </g>
     </g>
    </g>
    <g id="xtick_3">
     <g id="line2d_3">
      <g>
       <use style="stroke:#000000;stroke-width:0.8;" x="310.748416" xlink:href="#md34f8dbfd5" y="441"/>
      </g>
     </g>
     <g id="text_3">
      <!-- 2 -->
      <defs>
       <path d="M 19.1875 8.296875 
L 53.609375 8.296875 
L 53.609375 0 
L 7.328125 0 
L 7.328125 8.296875 
Q 12.9375 14.109375 22.625 23.890625 
Q 32.328125 33.6875 34.8125 36.53125 
Q 39.546875 41.84375 41.421875 45.53125 
Q 43.3125 49.21875 43.3125 52.78125 
Q 43.3125 58.59375 39.234375 62.25 
Q 35.15625 65.921875 28.609375 65.921875 
Q 23.96875 65.921875 18.8125 64.3125 
Q 13.671875 62.703125 7.8125 59.421875 
L 7.8125 69.390625 
Q 13.765625 71.78125 18.9375 73 
Q 24.125 74.21875 28.421875 74.21875 
Q 39.75 74.21875 46.484375 68.546875 
Q 53.21875 62.890625 53.21875 53.421875 
Q 53.21875 48.921875 51.53125 44.890625 
Q 49.859375 40.875 45.40625 35.40625 
Q 44.1875 33.984375 37.640625 27.21875 
Q 31.109375 20.453125 19.1875 8.296875 
z
" id="DejaVuSans-50"/>
      </defs>
      <g transform="translate(301.165994 457.877969)scale(0.13 -0.13)">
       <use xlink:href="#DejaVuSans-8722"/>
       <use x="83.789062" xlink:href="#DejaVuSans-50"/>
      </g>
     </g>
    </g>
    <g id="xtick_4">
     <g id="line2d_4">
      <g>
       <use style="stroke:#000000;stroke-width:0.8;" x="397.385183" xlink:href="#md34f8dbfd5" y="441"/>
      </g>
     </g>
     <g id="text_4">
      <!-- 1 -->
      <defs>
       <path d="M 12.40625 8.296875 
L 28.515625 8.296875 
L 28.515625 63.921875 
L 10.984375 60.40625 
L 10.984375 69.390625 
L 28.421875 72.90625 
L 38.28125 72.90625 
L 38.28125 8.296875 
L 54.390625 8.296875 
L 54.390625 0 
L 12.40625 0 
z
" id="DejaVuSans-49"/>
      </defs>
      <g transform="translate(387.802761 457.877969)scale(0.13 -0.13)">
       <use xlink:href="#DejaVuSans-8722"/>
       <use x="83.789062" xlink:href="#DejaVuSans-49"/>
      </g>
     </g>
    </g>
    <g id="xtick_5">
     <g id="line2d_5">
      <g>
       <use style="stroke:#000000;stroke-width:0.8;" x="484.021951" xlink:href="#md34f8dbfd5" y="441"/>
      </g>
     </g>
     <g id="text_5">
      <!-- 0 -->
      <defs>
       <path d="M 31.78125 66.40625 
Q 24.171875 66.40625 20.328125 58.90625 
Q 16.5 51.421875 16.5 36.375 
Q 16.5 21.390625 20.328125 13.890625 
Q 24.171875 6.390625 31.78125 6.390625 
Q 39.453125 6.390625 43.28125 13.890625 
Q 47.125 21.390625 47.125 36.375 
Q 47.125 51.421875 43.28125 58.90625 
Q 39.453125 66.40625 31.78125 66.40625 
z
M 31.78125 74.21875 
Q 44.046875 74.21875 50.515625 64.515625 
Q 56.984375 54.828125 56.984375 36.375 
Q 56.984375 17.96875 50.515625 8.265625 
Q 44.046875 -1.421875 31.78125 -1.421875 
Q 19.53125 -1.421875 13.0625 8.265625 
Q 6.59375 17.96875 6.59375 36.375 
Q 6.59375 54.828125 13.0625 64.515625 
Q 19.53125 74.21875 31.78125 74.21875 
z
" id="DejaVuSans-48"/>
      </defs>
      <g transform="translate(479.886326 457.877969)scale(0.13 -0.13)">
       <use xlink:href="#DejaVuSans-48"/>
      </g>
     </g>
    </g>
    <g id="xtick_6">
     <g id="line2d_6">
      <g>
       <use style="stroke:#000000;stroke-width:0.8;" x="570.658719" xlink:href="#md34f8dbfd5" y="441"/>
      </g>
     </g>
     <g id="text_6">
      <!-- 1 -->
      <g transform="translate(566.523094 457.877969)scale(0.13 -0.13)">
       <use xlink:href="#DejaVuSans-49"/>
      </g>
     </g>
    </g>
    <g id="text_7">
     <!-- Log Science and Tech R&amp;D Expenditure (%GDP) -->
     <defs>
      <path d="M 9.8125 72.90625 
L 19.671875 72.90625 
L 19.671875 8.296875 
L 55.171875 8.296875 
L 55.171875 0 
L 9.8125 0 
z
" id="DejaVuSans-76"/>
      <path d="M 30.609375 48.390625 
Q 23.390625 48.390625 19.1875 42.75 
Q 14.984375 37.109375 14.984375 27.296875 
Q 14.984375 17.484375 19.15625 11.84375 
Q 23.34375 6.203125 30.609375 6.203125 
Q 37.796875 6.203125 41.984375 11.859375 
Q 46.1875 17.53125 46.1875 27.296875 
Q 46.1875 37.015625 41.984375 42.703125 
Q 37.796875 48.390625 30.609375 48.390625 
z
M 30.609375 56 
Q 42.328125 56 49.015625 48.375 
Q 55.71875 40.765625 55.71875 27.296875 
Q 55.71875 13.875 49.015625 6.21875 
Q 42.328125 -1.421875 30.609375 -1.421875 
Q 18.84375 -1.421875 12.171875 6.21875 
Q 5.515625 13.875 5.515625 27.296875 
Q 5.515625 40.765625 12.171875 48.375 
Q 18.84375 56 30.609375 56 
z
" id="DejaVuSans-111"/>
      <path d="M 45.40625 27.984375 
Q 45.40625 37.75 41.375 43.109375 
Q 37.359375 48.484375 30.078125 48.484375 
Q 22.859375 48.484375 18.828125 43.109375 
Q 14.796875 37.75 14.796875 27.984375 
Q 14.796875 18.265625 18.828125 12.890625 
Q 22.859375 7.515625 30.078125 7.515625 
Q 37.359375 7.515625 41.375 12.890625 
Q 45.40625 18.265625 45.40625 27.984375 
z
M 54.390625 6.78125 
Q 54.390625 -7.171875 48.1875 -13.984375 
Q 42 -20.796875 29.203125 -20.796875 
Q 24.46875 -20.796875 20.265625 -20.09375 
Q 16.0625 -19.390625 12.109375 -17.921875 
L 12.109375 -9.1875 
Q 16.0625 -11.328125 19.921875 -12.34375 
Q 23.78125 -13.375 27.78125 -13.375 
Q 36.625 -13.375 41.015625 -8.765625 
Q 45.40625 -4.15625 45.40625 5.171875 
L 45.40625 9.625 
Q 42.625 4.78125 38.28125 2.390625 
Q 33.9375 0 27.875 0 
Q 17.828125 0 11.671875 7.65625 
Q 5.515625 15.328125 5.515625 27.984375 
Q 5.515625 40.671875 11.671875 48.328125 
Q 17.828125 56 27.875 56 
Q 33.9375 56 38.28125 53.609375 
Q 42.625 51.21875 45.40625 46.390625 
L 45.40625 54.6875 
L 54.390625 54.6875 
z
" id="DejaVuSans-103"/>
      <path id="DejaVuSans-32"/>
      <path d="M 53.515625 70.515625 
L 53.515625 60.890625 
Q 47.90625 63.578125 42.921875 64.890625 
Q 37.9375 66.21875 33.296875 66.21875 
Q 25.25 66.21875 20.875 63.09375 
Q 16.5 59.96875 16.5 54.203125 
Q 16.5 49.359375 19.40625 46.890625 
Q 22.3125 44.4375 30.421875 42.921875 
L 36.375 41.703125 
Q 47.40625 39.59375 52.65625 34.296875 
Q 57.90625 29 57.90625 20.125 
Q 57.90625 9.515625 50.796875 4.046875 
Q 43.703125 -1.421875 29.984375 -1.421875 
Q 24.8125 -1.421875 18.96875 -0.25 
Q 13.140625 0.921875 6.890625 3.21875 
L 6.890625 13.375 
Q 12.890625 10.015625 18.65625 8.296875 
Q 24.421875 6.59375 29.984375 6.59375 
Q 38.421875 6.59375 43.015625 9.90625 
Q 47.609375 13.234375 47.609375 19.390625 
Q 47.609375 24.75 44.3125 27.78125 
Q 41.015625 30.8125 33.5 32.328125 
L 27.484375 33.5 
Q 16.453125 35.6875 11.515625 40.375 
Q 6.59375 45.0625 6.59375 53.421875 
Q 6.59375 63.09375 13.40625 68.65625 
Q 20.21875 74.21875 32.171875 74.21875 
Q 37.3125 74.21875 42.625 73.28125 
Q 47.953125 72.359375 53.515625 70.515625 
z
" id="DejaVuSans-83"/>
      <path d="M 48.78125 52.59375 
L 48.78125 44.1875 
Q 44.96875 46.296875 41.140625 47.34375 
Q 37.3125 48.390625 33.40625 48.390625 
Q 24.65625 48.390625 19.8125 42.84375 
Q 14.984375 37.3125 14.984375 27.296875 
Q 14.984375 17.28125 19.8125 11.734375 
Q 24.65625 6.203125 33.40625 6.203125 
Q 37.3125 6.203125 41.140625 7.25 
Q 44.96875 8.296875 48.78125 10.40625 
L 48.78125 2.09375 
Q 45.015625 0.34375 40.984375 -0.53125 
Q 36.96875 -1.421875 32.421875 -1.421875 
Q 20.0625 -1.421875 12.78125 6.34375 
Q 5.515625 14.109375 5.515625 27.296875 
Q 5.515625 40.671875 12.859375 48.328125 
Q 20.21875 56 33.015625 56 
Q 37.15625 56 41.109375 55.140625 
Q 45.0625 54.296875 48.78125 52.59375 
z
" id="DejaVuSans-99"/>
      <path d="M 9.421875 54.6875 
L 18.40625 54.6875 
L 18.40625 0 
L 9.421875 0 
z
M 9.421875 75.984375 
L 18.40625 75.984375 
L 18.40625 64.59375 
L 9.421875 64.59375 
z
" id="DejaVuSans-105"/>
      <path d="M 56.203125 29.59375 
L 56.203125 25.203125 
L 14.890625 25.203125 
Q 15.484375 15.921875 20.484375 11.0625 
Q 25.484375 6.203125 34.421875 6.203125 
Q 39.59375 6.203125 44.453125 7.46875 
Q 49.3125 8.734375 54.109375 11.28125 
L 54.109375 2.78125 
Q 49.265625 0.734375 44.1875 -0.34375 
Q 39.109375 -1.421875 33.890625 -1.421875 
Q 20.796875 -1.421875 13.15625 6.1875 
Q 5.515625 13.8125 5.515625 26.8125 
Q 5.515625 40.234375 12.765625 48.109375 
Q 20.015625 56 32.328125 56 
Q 43.359375 56 49.78125 48.890625 
Q 56.203125 41.796875 56.203125 29.59375 
z
M 47.21875 32.234375 
Q 47.125 39.59375 43.09375 43.984375 
Q 39.0625 48.390625 32.421875 48.390625 
Q 24.90625 48.390625 20.390625 44.140625 
Q 15.875 39.890625 15.1875 32.171875 
z
" id="DejaVuSans-101"/>
      <path d="M 54.890625 33.015625 
L 54.890625 0 
L 45.90625 0 
L 45.90625 32.71875 
Q 45.90625 40.484375 42.875 44.328125 
Q 39.84375 48.1875 33.796875 48.1875 
Q 26.515625 48.1875 22.3125 43.546875 
Q 18.109375 38.921875 18.109375 30.90625 
L 18.109375 0 
L 9.078125 0 
L 9.078125 54.6875 
L 18.109375 54.6875 
L 18.109375 46.1875 
Q 21.34375 51.125 25.703125 53.5625 
Q 30.078125 56 35.796875 56 
Q 45.21875 56 50.046875 50.171875 
Q 54.890625 44.34375 54.890625 33.015625 
z
" id="DejaVuSans-110"/>
      <path d="M 34.28125 27.484375 
Q 23.390625 27.484375 19.1875 25 
Q 14.984375 22.515625 14.984375 16.5 
Q 14.984375 11.71875 18.140625 8.90625 
Q 21.296875 6.109375 26.703125 6.109375 
Q 34.1875 6.109375 38.703125 11.40625 
Q 43.21875 16.703125 43.21875 25.484375 
L 43.21875 27.484375 
z
M 52.203125 31.203125 
L 52.203125 0 
L 43.21875 0 
L 43.21875 8.296875 
Q 40.140625 3.328125 35.546875 0.953125 
Q 30.953125 -1.421875 24.3125 -1.421875 
Q 15.921875 -1.421875 10.953125 3.296875 
Q 6 8.015625 6 15.921875 
Q 6 25.140625 12.171875 29.828125 
Q 18.359375 34.515625 30.609375 34.515625 
L 43.21875 34.515625 
L 43.21875 35.40625 
Q 43.21875 41.609375 39.140625 45 
Q 35.0625 48.390625 27.6875 48.390625 
Q 23 48.390625 18.546875 47.265625 
Q 14.109375 46.140625 10.015625 43.890625 
L 10.015625 52.203125 
Q 14.9375 54.109375 19.578125 55.046875 
Q 24.21875 56 28.609375 56 
Q 40.484375 56 46.34375 49.84375 
Q 52.203125 43.703125 52.203125 31.203125 
z
" id="DejaVuSans-97"/>
      <path d="M 45.40625 46.390625 
L 45.40625 75.984375 
L 54.390625 75.984375 
L 54.390625 0 
L 45.40625 0 
L 45.40625 8.203125 
Q 42.578125 3.328125 38.25 0.953125 
Q 33.9375 -1.421875 27.875 -1.421875 
Q 17.96875 -1.421875 11.734375 6.484375 
Q 5.515625 14.40625 5.515625 27.296875 
Q 5.515625 40.1875 11.734375 48.09375 
Q 17.96875 56 27.875 56 
Q 33.9375 56 38.25 53.625 
Q 42.578125 51.265625 45.40625 46.390625 
z
M 14.796875 27.296875 
Q 14.796875 17.390625 18.875 11.75 
Q 22.953125 6.109375 30.078125 6.109375 
Q 37.203125 6.109375 41.296875 11.75 
Q 45.40625 17.390625 45.40625 27.296875 
Q 45.40625 37.203125 41.296875 42.84375 
Q 37.203125 48.484375 30.078125 48.484375 
Q 22.953125 48.484375 18.875 42.84375 
Q 14.796875 37.203125 14.796875 27.296875 
z
" id="DejaVuSans-100"/>
      <path d="M -0.296875 72.90625 
L 61.375 72.90625 
L 61.375 64.59375 
L 35.5 64.59375 
L 35.5 0 
L 25.59375 0 
L 25.59375 64.59375 
L -0.296875 64.59375 
z
" id="DejaVuSans-84"/>
      <path d="M 54.890625 33.015625 
L 54.890625 0 
L 45.90625 0 
L 45.90625 32.71875 
Q 45.90625 40.484375 42.875 44.328125 
Q 39.84375 48.1875 33.796875 48.1875 
Q 26.515625 48.1875 22.3125 43.546875 
Q 18.109375 38.921875 18.109375 30.90625 
L 18.109375 0 
L 9.078125 0 
L 9.078125 75.984375 
L 18.109375 75.984375 
L 18.109375 46.1875 
Q 21.34375 51.125 25.703125 53.5625 
Q 30.078125 56 35.796875 56 
Q 45.21875 56 50.046875 50.171875 
Q 54.890625 44.34375 54.890625 33.015625 
z
" id="DejaVuSans-104"/>
      <path d="M 44.390625 34.1875 
Q 47.5625 33.109375 50.5625 29.59375 
Q 53.5625 26.078125 56.59375 19.921875 
L 66.609375 0 
L 56 0 
L 46.6875 18.703125 
Q 43.0625 26.03125 39.671875 28.421875 
Q 36.28125 30.8125 30.421875 30.8125 
L 19.671875 30.8125 
L 19.671875 0 
L 9.8125 0 
L 9.8125 72.90625 
L 32.078125 72.90625 
Q 44.578125 72.90625 50.734375 67.671875 
Q 56.890625 62.453125 56.890625 51.90625 
Q 56.890625 45.015625 53.6875 40.46875 
Q 50.484375 35.9375 44.390625 34.1875 
z
M 19.671875 64.796875 
L 19.671875 38.921875 
L 32.078125 38.921875 
Q 39.203125 38.921875 42.84375 42.21875 
Q 46.484375 45.515625 46.484375 51.90625 
Q 46.484375 58.296875 42.84375 61.546875 
Q 39.203125 64.796875 32.078125 64.796875 
z
" id="DejaVuSans-82"/>
      <path d="M 24.3125 39.203125 
Q 19.875 35.25 17.796875 31.3125 
Q 15.71875 27.390625 15.71875 23.09375 
Q 15.71875 15.96875 20.890625 11.234375 
Q 26.078125 6.5 33.890625 6.5 
Q 38.53125 6.5 42.578125 8.03125 
Q 46.625 9.578125 50.203125 12.703125 
z
M 31.203125 44.671875 
L 56 19.28125 
Q 58.890625 23.640625 60.5 28.59375 
Q 62.109375 33.546875 62.40625 39.109375 
L 71.484375 39.109375 
Q 70.90625 32.671875 68.359375 26.359375 
Q 65.828125 20.0625 61.28125 13.921875 
L 74.90625 0 
L 62.59375 0 
L 55.609375 7.171875 
Q 50.53125 2.828125 44.96875 0.703125 
Q 39.40625 -1.421875 33.015625 -1.421875 
Q 21.234375 -1.421875 13.765625 5.296875 
Q 6.296875 12.015625 6.296875 22.515625 
Q 6.296875 28.765625 9.5625 34.25 
Q 12.84375 39.75 19.390625 44.578125 
Q 17.046875 47.65625 15.8125 50.703125 
Q 14.59375 53.765625 14.59375 56.6875 
Q 14.59375 64.59375 20.015625 69.40625 
Q 25.4375 74.21875 34.421875 74.21875 
Q 38.484375 74.21875 42.5 73.34375 
Q 46.53125 72.46875 50.6875 70.703125 
L 50.6875 61.8125 
Q 46.4375 64.109375 42.578125 65.296875 
Q 38.71875 66.5 35.40625 66.5 
Q 30.28125 66.5 27.078125 63.78125 
Q 23.875 61.078125 23.875 56.78125 
Q 23.875 54.296875 25.3125 51.78125 
Q 26.765625 49.265625 31.203125 44.671875 
z
" id="DejaVuSans-38"/>
      <path d="M 19.671875 64.796875 
L 19.671875 8.109375 
L 31.59375 8.109375 
Q 46.6875 8.109375 53.6875 14.9375 
Q 60.6875 21.78125 60.6875 36.53125 
Q 60.6875 51.171875 53.6875 57.984375 
Q 46.6875 64.796875 31.59375 64.796875 
z
M 9.8125 72.90625 
L 30.078125 72.90625 
Q 51.265625 72.90625 61.171875 64.09375 
Q 71.09375 55.28125 71.09375 36.53125 
Q 71.09375 17.671875 61.125 8.828125 
Q 51.171875 0 30.078125 0 
L 9.8125 0 
z
" id="DejaVuSans-68"/>
      <path d="M 9.8125 72.90625 
L 55.90625 72.90625 
L 55.90625 64.59375 
L 19.671875 64.59375 
L 19.671875 43.015625 
L 54.390625 43.015625 
L 54.390625 34.71875 
L 19.671875 34.71875 
L 19.671875 8.296875 
L 56.78125 8.296875 
L 56.78125 0 
L 9.8125 0 
z
" id="DejaVuSans-69"/>
      <path d="M 54.890625 54.6875 
L 35.109375 28.078125 
L 55.90625 0 
L 45.3125 0 
L 29.390625 21.484375 
L 13.484375 0 
L 2.875 0 
L 24.125 28.609375 
L 4.6875 54.6875 
L 15.28125 54.6875 
L 29.78125 35.203125 
L 44.28125 54.6875 
z
" id="DejaVuSans-120"/>
      <path d="M 18.109375 8.203125 
L 18.109375 -20.796875 
L 9.078125 -20.796875 
L 9.078125 54.6875 
L 18.109375 54.6875 
L 18.109375 46.390625 
Q 20.953125 51.265625 25.265625 53.625 
Q 29.59375 56 35.59375 56 
Q 45.5625 56 51.78125 48.09375 
Q 58.015625 40.1875 58.015625 27.296875 
Q 58.015625 14.40625 51.78125 6.484375 
Q 45.5625 -1.421875 35.59375 -1.421875 
Q 29.59375 -1.421875 25.265625 0.953125 
Q 20.953125 3.328125 18.109375 8.203125 
z
M 48.6875 27.296875 
Q 48.6875 37.203125 44.609375 42.84375 
Q 40.53125 48.484375 33.40625 48.484375 
Q 26.265625 48.484375 22.1875 42.84375 
Q 18.109375 37.203125 18.109375 27.296875 
Q 18.109375 17.390625 22.1875 11.75 
Q 26.265625 6.109375 33.40625 6.109375 
Q 40.53125 6.109375 44.609375 11.75 
Q 48.6875 17.390625 48.6875 27.296875 
z
" id="DejaVuSans-112"/>
      <path d="M 18.3125 70.21875 
L 18.3125 54.6875 
L 36.8125 54.6875 
L 36.8125 47.703125 
L 18.3125 47.703125 
L 18.3125 18.015625 
Q 18.3125 11.328125 20.140625 9.421875 
Q 21.96875 7.515625 27.59375 7.515625 
L 36.8125 7.515625 
L 36.8125 0 
L 27.59375 0 
Q 17.1875 0 13.234375 3.875 
Q 9.28125 7.765625 9.28125 18.015625 
L 9.28125 47.703125 
L 2.6875 47.703125 
L 2.6875 54.6875 
L 9.28125 54.6875 
L 9.28125 70.21875 
z
" id="DejaVuSans-116"/>
      <path d="M 8.5 21.578125 
L 8.5 54.6875 
L 17.484375 54.6875 
L 17.484375 21.921875 
Q 17.484375 14.15625 20.5 10.265625 
Q 23.53125 6.390625 29.59375 6.390625 
Q 36.859375 6.390625 41.078125 11.03125 
Q 45.3125 15.671875 45.3125 23.6875 
L 45.3125 54.6875 
L 54.296875 54.6875 
L 54.296875 0 
L 45.3125 0 
L 45.3125 8.40625 
Q 42.046875 3.421875 37.71875 1 
Q 33.40625 -1.421875 27.6875 -1.421875 
Q 18.265625 -1.421875 13.375 4.4375 
Q 8.5 10.296875 8.5 21.578125 
z
M 31.109375 56 
z
" id="DejaVuSans-117"/>
      <path d="M 41.109375 46.296875 
Q 39.59375 47.171875 37.8125 47.578125 
Q 36.03125 48 33.890625 48 
Q 26.265625 48 22.1875 43.046875 
Q 18.109375 38.09375 18.109375 28.8125 
L 18.109375 0 
L 9.078125 0 
L 9.078125 54.6875 
L 18.109375 54.6875 
L 18.109375 46.1875 
Q 20.953125 51.171875 25.484375 53.578125 
Q 30.03125 56 36.53125 56 
Q 37.453125 56 38.578125 55.875 
Q 39.703125 55.765625 41.0625 55.515625 
z
" id="DejaVuSans-114"/>
      <path d="M 31 75.875 
Q 24.46875 64.65625 21.28125 53.65625 
Q 18.109375 42.671875 18.109375 31.390625 
Q 18.109375 20.125 21.3125 9.0625 
Q 24.515625 -2 31 -13.1875 
L 23.1875 -13.1875 
Q 15.875 -1.703125 12.234375 9.375 
Q 8.59375 20.453125 8.59375 31.390625 
Q 8.59375 42.28125 12.203125 53.3125 
Q 15.828125 64.359375 23.1875 75.875 
z
" id="DejaVuSans-40"/>
      <path d="M 72.703125 32.078125 
Q 68.453125 32.078125 66.03125 28.46875 
Q 63.625 24.859375 63.625 18.40625 
Q 63.625 12.0625 66.03125 8.421875 
Q 68.453125 4.78125 72.703125 4.78125 
Q 76.859375 4.78125 79.265625 8.421875 
Q 81.6875 12.0625 81.6875 18.40625 
Q 81.6875 24.8125 79.265625 28.4375 
Q 76.859375 32.078125 72.703125 32.078125 
z
M 72.703125 38.28125 
Q 80.421875 38.28125 84.953125 32.90625 
Q 89.5 27.546875 89.5 18.40625 
Q 89.5 9.28125 84.9375 3.921875 
Q 80.375 -1.421875 72.703125 -1.421875 
Q 64.890625 -1.421875 60.34375 3.921875 
Q 55.8125 9.28125 55.8125 18.40625 
Q 55.8125 27.59375 60.375 32.9375 
Q 64.9375 38.28125 72.703125 38.28125 
z
M 22.3125 68.015625 
Q 18.109375 68.015625 15.6875 64.375 
Q 13.28125 60.75 13.28125 54.390625 
Q 13.28125 47.953125 15.671875 44.328125 
Q 18.0625 40.71875 22.3125 40.71875 
Q 26.5625 40.71875 28.96875 44.328125 
Q 31.390625 47.953125 31.390625 54.390625 
Q 31.390625 60.6875 28.953125 64.34375 
Q 26.515625 68.015625 22.3125 68.015625 
z
M 66.40625 74.21875 
L 74.21875 74.21875 
L 28.609375 -1.421875 
L 20.796875 -1.421875 
z
M 22.3125 74.21875 
Q 30.03125 74.21875 34.609375 68.875 
Q 39.203125 63.53125 39.203125 54.390625 
Q 39.203125 45.171875 34.640625 39.84375 
Q 30.078125 34.515625 22.3125 34.515625 
Q 14.546875 34.515625 10.03125 39.859375 
Q 5.515625 45.21875 5.515625 54.390625 
Q 5.515625 63.484375 10.046875 68.84375 
Q 14.59375 74.21875 22.3125 74.21875 
z
" id="DejaVuSans-37"/>
      <path d="M 59.515625 10.40625 
L 59.515625 29.984375 
L 43.40625 29.984375 
L 43.40625 38.09375 
L 69.28125 38.09375 
L 69.28125 6.78125 
Q 63.578125 2.734375 56.6875 0.65625 
Q 49.8125 -1.421875 42 -1.421875 
Q 24.90625 -1.421875 15.25 8.5625 
Q 5.609375 18.5625 5.609375 36.375 
Q 5.609375 54.25 15.25 64.234375 
Q 24.90625 74.21875 42 74.21875 
Q 49.125 74.21875 55.546875 72.453125 
Q 61.96875 70.703125 67.390625 67.28125 
L 67.390625 56.78125 
Q 61.921875 61.421875 55.765625 63.765625 
Q 49.609375 66.109375 42.828125 66.109375 
Q 29.4375 66.109375 22.71875 58.640625 
Q 16.015625 51.171875 16.015625 36.375 
Q 16.015625 21.625 22.71875 14.15625 
Q 29.4375 6.6875 42.828125 6.6875 
Q 48.046875 6.6875 52.140625 7.59375 
Q 56.25 8.5 59.515625 10.40625 
z
" id="DejaVuSans-71"/>
      <path d="M 19.671875 64.796875 
L 19.671875 37.40625 
L 32.078125 37.40625 
Q 38.96875 37.40625 42.71875 40.96875 
Q 46.484375 44.53125 46.484375 51.125 
Q 46.484375 57.671875 42.71875 61.234375 
Q 38.96875 64.796875 32.078125 64.796875 
z
M 9.8125 72.90625 
L 32.078125 72.90625 
Q 44.34375 72.90625 50.609375 67.359375 
Q 56.890625 61.8125 56.890625 51.125 
Q 56.890625 40.328125 50.609375 34.8125 
Q 44.34375 29.296875 32.078125 29.296875 
L 19.671875 29.296875 
L 19.671875 0 
L 9.8125 0 
z
" id="DejaVuSans-80"/>
      <path d="M 8.015625 75.875 
L 15.828125 75.875 
Q 23.140625 64.359375 26.78125 53.3125 
Q 30.421875 42.28125 30.421875 31.390625 
Q 30.421875 20.453125 26.78125 9.375 
Q 23.140625 -1.703125 15.828125 -13.1875 
L 8.015625 -13.1875 
Q 14.5 -2 17.703125 9.0625 
Q 20.90625 20.125 20.90625 31.390625 
Q 20.90625 42.671875 17.703125 53.65625 
Q 14.5 64.65625 8.015625 75.875 
z
" id="DejaVuSans-41"/>
     </defs>
     <g transform="translate(201.951562 475.219375)scale(0.14 -0.14)">
      <use xlink:href="#DejaVuSans-76"/>
      <use x="53.962891" xlink:href="#DejaVuSans-111"/>
      <use x="115.144531" xlink:href="#DejaVuSans-103"/>
      <use x="178.621094" xlink:href="#DejaVuSans-32"/>
      <use x="210.408203" xlink:href="#DejaVuSans-83"/>
      <use x="273.884766" xlink:href="#DejaVuSans-99"/>
      <use x="328.865234" xlink:href="#DejaVuSans-105"/>
      <use x="356.648438" xlink:href="#DejaVuSans-101"/>
      <use x="418.171875" xlink:href="#DejaVuSans-110"/>
      <use x="481.550781" xlink:href="#DejaVuSans-99"/>
      <use x="536.53125" xlink:href="#DejaVuSans-101"/>
      <use x="598.054688" xlink:href="#DejaVuSans-32"/>
      <use x="629.841797" xlink:href="#DejaVuSans-97"/>
      <use x="691.121094" xlink:href="#DejaVuSans-110"/>
      <use x="754.5" xlink:href="#DejaVuSans-100"/>
      <use x="817.976562" xlink:href="#DejaVuSans-32"/>
      <use x="849.763672" xlink:href="#DejaVuSans-84"/>
      <use x="893.847656" xlink:href="#DejaVuSans-101"/>
      <use x="955.371094" xlink:href="#DejaVuSans-99"/>
      <use x="1010.351562" xlink:href="#DejaVuSans-104"/>
      <use x="1073.730469" xlink:href="#DejaVuSans-32"/>
      <use x="1105.517578" xlink:href="#DejaVuSans-82"/>
      <use x="1175" xlink:href="#DejaVuSans-38"/>
      <use x="1252.978516" xlink:href="#DejaVuSans-68"/>
      <use x="1329.980469" xlink:href="#DejaVuSans-32"/>
      <use x="1361.767578" xlink:href="#DejaVuSans-69"/>
      <use x="1424.951172" xlink:href="#DejaVuSans-120"/>
      <use x="1484.130859" xlink:href="#DejaVuSans-112"/>
      <use x="1547.607422" xlink:href="#DejaVuSans-101"/>
      <use x="1609.130859" xlink:href="#DejaVuSans-110"/>
      <use x="1672.509766" xlink:href="#DejaVuSans-100"/>
      <use x="1735.986328" xlink:href="#DejaVuSans-105"/>
      <use x="1763.769531" xlink:href="#DejaVuSans-116"/>
      <use x="1802.978516" xlink:href="#DejaVuSans-117"/>
      <use x="1866.357422" xlink:href="#DejaVuSans-114"/>
      <use x="1905.220703" xlink:href="#DejaVuSans-101"/>
      <use x="1966.744141" xlink:href="#DejaVuSans-32"/>
      <use x="1998.53125" xlink:href="#DejaVuSans-40"/>
      <use x="2037.544922" xlink:href="#DejaVuSans-37"/>
      <use x="2132.564453" xlink:href="#DejaVuSans-71"/>
      <use x="2210.054688" xlink:href="#DejaVuSans-68"/>
      <use x="2287.056641" xlink:href="#DejaVuSans-80"/>
      <use x="2347.359375" xlink:href="#DejaVuSans-41"/>
     </g>
    </g>
   </g>
   <g id="matplotlib.axis_2">
    <g id="ytick_1">
     <g id="line2d_7">
      <defs>
       <path d="M 0 0 
L -3.5 0 
" id="mc21e0c70ab" style="stroke:#000000;stroke-width:0.8;"/>
      </defs>
      <g>
       <use style="stroke:#000000;stroke-width:0.8;" x="90" xlink:href="#mc21e0c70ab" y="409.572195"/>
      </g>
     </g>
     <g id="text_8">
      <!-- 40 -->
      <g transform="translate(66.4575 414.511179)scale(0.13 -0.13)">
       <use xlink:href="#DejaVuSans-52"/>
       <use x="63.623047" xlink:href="#DejaVuSans-48"/>
      </g>
     </g>
    </g>
    <g id="ytick_2">
     <g id="line2d_8">
      <g>
       <use style="stroke:#000000;stroke-width:0.8;" x="90" xlink:href="#mc21e0c70ab" y="344.450344"/>
      </g>
     </g>
     <g id="text_9">
      <!-- 50 -->
      <defs>
       <path d="M 10.796875 72.90625 
L 49.515625 72.90625 
L 49.515625 64.59375 
L 19.828125 64.59375 
L 19.828125 46.734375 
Q 21.96875 47.46875 24.109375 47.828125 
Q 26.265625 48.1875 28.421875 48.1875 
Q 40.625 48.1875 47.75 41.5 
Q 54.890625 34.8125 54.890625 23.390625 
Q 54.890625 11.625 47.5625 5.09375 
Q 40.234375 -1.421875 26.90625 -1.421875 
Q 22.3125 -1.421875 17.546875 -0.640625 
Q 12.796875 0.140625 7.71875 1.703125 
L 7.71875 11.625 
Q 12.109375 9.234375 16.796875 8.0625 
Q 21.484375 6.890625 26.703125 6.890625 
Q 35.15625 6.890625 40.078125 11.328125 
Q 45.015625 15.765625 45.015625 23.390625 
Q 45.015625 31 40.078125 35.4375 
Q 35.15625 39.890625 26.703125 39.890625 
Q 22.75 39.890625 18.8125 39.015625 
Q 14.890625 38.140625 10.796875 36.28125 
z
" id="DejaVuSans-53"/>
      </defs>
      <g transform="translate(66.4575 349.389328)scale(0.13 -0.13)">
       <use xlink:href="#DejaVuSans-53"/>
       <use x="63.623047" xlink:href="#DejaVuSans-48"/>
      </g>
     </g>
    </g>
    <g id="ytick_3">
     <g id="line2d_9">
      <g>
       <use style="stroke:#000000;stroke-width:0.8;" x="90" xlink:href="#mc21e0c70ab" y="279.328493"/>
      </g>
     </g>
     <g id="text_10">
      <!-- 60 -->
      <defs>
       <path d="M 33.015625 40.375 
Q 26.375 40.375 22.484375 35.828125 
Q 18.609375 31.296875 18.609375 23.390625 
Q 18.609375 15.53125 22.484375 10.953125 
Q 26.375 6.390625 33.015625 6.390625 
Q 39.65625 6.390625 43.53125 10.953125 
Q 47.40625 15.53125 47.40625 23.390625 
Q 47.40625 31.296875 43.53125 35.828125 
Q 39.65625 40.375 33.015625 40.375 
z
M 52.59375 71.296875 
L 52.59375 62.3125 
Q 48.875 64.0625 45.09375 64.984375 
Q 41.3125 65.921875 37.59375 65.921875 
Q 27.828125 65.921875 22.671875 59.328125 
Q 17.53125 52.734375 16.796875 39.40625 
Q 19.671875 43.65625 24.015625 45.921875 
Q 28.375 48.1875 33.59375 48.1875 
Q 44.578125 48.1875 50.953125 41.515625 
Q 57.328125 34.859375 57.328125 23.390625 
Q 57.328125 12.15625 50.6875 5.359375 
Q 44.046875 -1.421875 33.015625 -1.421875 
Q 20.359375 -1.421875 13.671875 8.265625 
Q 6.984375 17.96875 6.984375 36.375 
Q 6.984375 53.65625 15.1875 63.9375 
Q 23.390625 74.21875 37.203125 74.21875 
Q 40.921875 74.21875 44.703125 73.484375 
Q 48.484375 72.75 52.59375 71.296875 
z
" id="DejaVuSans-54"/>
      </defs>
      <g transform="translate(66.4575 284.267477)scale(0.13 -0.13)">
       <use xlink:href="#DejaVuSans-54"/>
       <use x="63.623047" xlink:href="#DejaVuSans-48"/>
      </g>
     </g>
    </g>
    <g id="ytick_4">
     <g id="line2d_10">
      <g>
       <use style="stroke:#000000;stroke-width:0.8;" x="90" xlink:href="#mc21e0c70ab" y="214.206642"/>
      </g>
     </g>
     <g id="text_11">
      <!-- 70 -->
      <defs>
       <path d="M 8.203125 72.90625 
L 55.078125 72.90625 
L 55.078125 68.703125 
L 28.609375 0 
L 18.3125 0 
L 43.21875 64.59375 
L 8.203125 64.59375 
z
" id="DejaVuSans-55"/>
      </defs>
      <g transform="translate(66.4575 219.145626)scale(0.13 -0.13)">
       <use xlink:href="#DejaVuSans-55"/>
       <use x="63.623047" xlink:href="#DejaVuSans-48"/>
      </g>
     </g>
    </g>
    <g id="ytick_5">
     <g id="line2d_11">
      <g>
       <use style="stroke:#000000;stroke-width:0.8;" x="90" xlink:href="#mc21e0c70ab" y="149.084791"/>
      </g>
     </g>
     <g id="text_12">
      <!-- 80 -->
      <defs>
       <path d="M 31.78125 34.625 
Q 24.75 34.625 20.71875 30.859375 
Q 16.703125 27.09375 16.703125 20.515625 
Q 16.703125 13.921875 20.71875 10.15625 
Q 24.75 6.390625 31.78125 6.390625 
Q 38.8125 6.390625 42.859375 10.171875 
Q 46.921875 13.96875 46.921875 20.515625 
Q 46.921875 27.09375 42.890625 30.859375 
Q 38.875 34.625 31.78125 34.625 
z
M 21.921875 38.8125 
Q 15.578125 40.375 12.03125 44.71875 
Q 8.5 49.078125 8.5 55.328125 
Q 8.5 64.0625 14.71875 69.140625 
Q 20.953125 74.21875 31.78125 74.21875 
Q 42.671875 74.21875 48.875 69.140625 
Q 55.078125 64.0625 55.078125 55.328125 
Q 55.078125 49.078125 51.53125 44.71875 
Q 48 40.375 41.703125 38.8125 
Q 48.828125 37.15625 52.796875 32.3125 
Q 56.78125 27.484375 56.78125 20.515625 
Q 56.78125 9.90625 50.3125 4.234375 
Q 43.84375 -1.421875 31.78125 -1.421875 
Q 19.734375 -1.421875 13.25 4.234375 
Q 6.78125 9.90625 6.78125 20.515625 
Q 6.78125 27.484375 10.78125 32.3125 
Q 14.796875 37.15625 21.921875 38.8125 
z
M 18.3125 54.390625 
Q 18.3125 48.734375 21.84375 45.5625 
Q 25.390625 42.390625 31.78125 42.390625 
Q 38.140625 42.390625 41.71875 45.5625 
Q 45.3125 48.734375 45.3125 54.390625 
Q 45.3125 60.0625 41.71875 63.234375 
Q 38.140625 66.40625 31.78125 66.40625 
Q 25.390625 66.40625 21.84375 63.234375 
Q 18.3125 60.0625 18.3125 54.390625 
z
" id="DejaVuSans-56"/>
      </defs>
      <g transform="translate(66.4575 154.023775)scale(0.13 -0.13)">
       <use xlink:href="#DejaVuSans-56"/>
       <use x="63.623047" xlink:href="#DejaVuSans-48"/>
      </g>
     </g>
    </g>
    <g id="ytick_6">
     <g id="line2d_12">
      <g>
       <use style="stroke:#000000;stroke-width:0.8;" x="90" xlink:href="#mc21e0c70ab" y="83.962939"/>
      </g>
     </g>
     <g id="text_13">
      <!-- 90 -->
      <defs>
       <path d="M 10.984375 1.515625 
L 10.984375 10.5 
Q 14.703125 8.734375 18.5 7.8125 
Q 22.3125 6.890625 25.984375 6.890625 
Q 35.75 6.890625 40.890625 13.453125 
Q 46.046875 20.015625 46.78125 33.40625 
Q 43.953125 29.203125 39.59375 26.953125 
Q 35.25 24.703125 29.984375 24.703125 
Q 19.046875 24.703125 12.671875 31.3125 
Q 6.296875 37.9375 6.296875 49.421875 
Q 6.296875 60.640625 12.9375 67.421875 
Q 19.578125 74.21875 30.609375 74.21875 
Q 43.265625 74.21875 49.921875 64.515625 
Q 56.59375 54.828125 56.59375 36.375 
Q 56.59375 19.140625 48.40625 8.859375 
Q 40.234375 -1.421875 26.421875 -1.421875 
Q 22.703125 -1.421875 18.890625 -0.6875 
Q 15.09375 0.046875 10.984375 1.515625 
z
M 30.609375 32.421875 
Q 37.25 32.421875 41.125 36.953125 
Q 45.015625 41.5 45.015625 49.421875 
Q 45.015625 57.28125 41.125 61.84375 
Q 37.25 66.40625 30.609375 66.40625 
Q 23.96875 66.40625 20.09375 61.84375 
Q 16.21875 57.28125 16.21875 49.421875 
Q 16.21875 41.5 20.09375 36.953125 
Q 23.96875 32.421875 30.609375 32.421875 
z
" id="DejaVuSans-57"/>
      </defs>
      <g transform="translate(66.4575 88.901924)scale(0.13 -0.13)">
       <use xlink:href="#DejaVuSans-57"/>
       <use x="63.623047" xlink:href="#DejaVuSans-48"/>
      </g>
     </g>
    </g>
    <g id="text_14">
     <!-- SPI -->
     <defs>
      <path d="M 9.8125 72.90625 
L 19.671875 72.90625 
L 19.671875 0 
L 9.8125 0 
z
" id="DejaVuSans-73"/>
     </defs>
     <g transform="translate(59.545937 261.469688)rotate(-90)scale(0.14 -0.14)">
      <use xlink:href="#DejaVuSans-83"/>
      <use x="63.476562" xlink:href="#DejaVuSans-80"/>
      <use x="123.779297" xlink:href="#DejaVuSans-73"/>
     </g>
    </g>
   </g>
   <g id="patch_3">
    <path d="M 90 441 
L 90 60.48 
" style="fill:none;stroke:#000000;stroke-linecap:square;stroke-linejoin:miter;stroke-width:0.8;"/>
   </g>
   <g id="patch_4">
    <path d="M 648 441 
L 648 60.48 
" style="fill:none;stroke:#000000;stroke-linecap:square;stroke-linejoin:miter;stroke-width:0.8;"/>
   </g>
   <g id="patch_5">
    <path d="M 90 441 
L 648 441 
" style="fill:none;stroke:#000000;stroke-linecap:square;stroke-linejoin:miter;stroke-width:0.8;"/>
   </g>
   <g id="patch_6">
    <path d="M 90 60.48 
L 648 60.48 
" style="fill:none;stroke:#000000;stroke-linecap:square;stroke-linejoin:miter;stroke-width:0.8;"/>
   </g>
   <g id="text_15">
    <!-- Log Science and Tech R&amp;D Expenditure (%GDP) vs SPI -->
    <defs>
     <path d="M 2.984375 54.6875 
L 12.5 54.6875 
L 29.59375 8.796875 
L 46.6875 54.6875 
L 56.203125 54.6875 
L 35.6875 0 
L 23.484375 0 
z
" id="DejaVuSans-118"/>
     <path d="M 44.28125 53.078125 
L 44.28125 44.578125 
Q 40.484375 46.53125 36.375 47.5 
Q 32.28125 48.484375 27.875 48.484375 
Q 21.1875 48.484375 17.84375 46.4375 
Q 14.5 44.390625 14.5 40.28125 
Q 14.5 37.15625 16.890625 35.375 
Q 19.28125 33.59375 26.515625 31.984375 
L 29.59375 31.296875 
Q 39.15625 29.25 43.1875 25.515625 
Q 47.21875 21.78125 47.21875 15.09375 
Q 47.21875 7.46875 41.1875 3.015625 
Q 35.15625 -1.421875 24.609375 -1.421875 
Q 20.21875 -1.421875 15.453125 -0.5625 
Q 10.6875 0.296875 5.421875 2 
L 5.421875 11.28125 
Q 10.40625 8.6875 15.234375 7.390625 
Q 20.0625 6.109375 24.8125 6.109375 
Q 31.15625 6.109375 34.5625 8.28125 
Q 37.984375 10.453125 37.984375 14.40625 
Q 37.984375 18.0625 35.515625 20.015625 
Q 33.0625 21.96875 24.703125 23.78125 
L 21.578125 24.515625 
Q 13.234375 26.265625 9.515625 29.90625 
Q 5.8125 33.546875 5.8125 39.890625 
Q 5.8125 47.609375 11.28125 51.796875 
Q 16.75 56 26.8125 56 
Q 31.78125 56 36.171875 55.265625 
Q 40.578125 54.546875 44.28125 53.078125 
z
" id="DejaVuSans-115"/>
    </defs>
    <g transform="translate(151.8375 54.48)scale(0.16 -0.16)">
     <use xlink:href="#DejaVuSans-76"/>
     <use x="53.962891" xlink:href="#DejaVuSans-111"/>
     <use x="115.144531" xlink:href="#DejaVuSans-103"/>
     <use x="178.621094" xlink:href="#DejaVuSans-32"/>
     <use x="210.408203" xlink:href="#DejaVuSans-83"/>
     <use x="273.884766" xlink:href="#DejaVuSans-99"/>
     <use x="328.865234" xlink:href="#DejaVuSans-105"/>
     <use x="356.648438" xlink:href="#DejaVuSans-101"/>
     <use x="418.171875" xlink:href="#DejaVuSans-110"/>
     <use x="481.550781" xlink:href="#DejaVuSans-99"/>
     <use x="536.53125" xlink:href="#DejaVuSans-101"/>
     <use x="598.054688" xlink:href="#DejaVuSans-32"/>
     <use x="629.841797" xlink:href="#DejaVuSans-97"/>
     <use x="691.121094" xlink:href="#DejaVuSans-110"/>
     <use x="754.5" xlink:href="#DejaVuSans-100"/>
     <use x="817.976562" xlink:href="#DejaVuSans-32"/>
     <use x="849.763672" xlink:href="#DejaVuSans-84"/>
     <use x="893.847656" xlink:href="#DejaVuSans-101"/>
     <use x="955.371094" xlink:href="#DejaVuSans-99"/>
     <use x="1010.351562" xlink:href="#DejaVuSans-104"/>
     <use x="1073.730469" xlink:href="#DejaVuSans-32"/>
     <use x="1105.517578" xlink:href="#DejaVuSans-82"/>
     <use x="1175" xlink:href="#DejaVuSans-38"/>
     <use x="1252.978516" xlink:href="#DejaVuSans-68"/>
     <use x="1329.980469" xlink:href="#DejaVuSans-32"/>
     <use x="1361.767578" xlink:href="#DejaVuSans-69"/>
     <use x="1424.951172" xlink:href="#DejaVuSans-120"/>
     <use x="1484.130859" xlink:href="#DejaVuSans-112"/>
     <use x="1547.607422" xlink:href="#DejaVuSans-101"/>
     <use x="1609.130859" xlink:href="#DejaVuSans-110"/>
     <use x="1672.509766" xlink:href="#DejaVuSans-100"/>
     <use x="1735.986328" xlink:href="#DejaVuSans-105"/>
     <use x="1763.769531" xlink:href="#DejaVuSans-116"/>
     <use x="1802.978516" xlink:href="#DejaVuSans-117"/>
     <use x="1866.357422" xlink:href="#DejaVuSans-114"/>
     <use x="1905.220703" xlink:href="#DejaVuSans-101"/>
     <use x="1966.744141" xlink:href="#DejaVuSans-32"/>
     <use x="1998.53125" xlink:href="#DejaVuSans-40"/>
     <use x="2037.544922" xlink:href="#DejaVuSans-37"/>
     <use x="2132.564453" xlink:href="#DejaVuSans-71"/>
     <use x="2210.054688" xlink:href="#DejaVuSans-68"/>
     <use x="2287.056641" xlink:href="#DejaVuSans-80"/>
     <use x="2347.359375" xlink:href="#DejaVuSans-41"/>
     <use x="2386.373047" xlink:href="#DejaVuSans-32"/>
     <use x="2418.160156" xlink:href="#DejaVuSans-118"/>
     <use x="2477.339844" xlink:href="#DejaVuSans-115"/>
     <use x="2529.439453" xlink:href="#DejaVuSans-32"/>
     <use x="2561.226562" xlink:href="#DejaVuSans-83"/>
     <use x="2624.703125" xlink:href="#DejaVuSans-80"/>
     <use x="2685.005859" xlink:href="#DejaVuSans-73"/>
    </g>
   </g>
  </g>
 </g>
 <defs>
  <clipPath id="p854828a037">
   <rect height="380.52" width="558" x="90" y="60.48"/>
  </clipPath>
 </defs>
</svg>
